<?xml version="1.0" encoding="utf-8"?>
<!-- Generator: Adobe Illustrator 24.1.1, SVG Export Plug-In . SVG Version: 6.00 Build 0)  -->
<svg version="1.1" id="圖層_1" xmlns="http://www.w3.org/2000/svg" xmlns:xlink="http://www.w3.org/1999/xlink" x="0px" y="0px"
	 viewBox="0 0 1402 200" style="enable-background:new 0 0 1402 200;" xml:space="preserve">
<style type="text/css">
	.st0{fill:#B8874D;}
</style>
<g>
	<path class="st0" d="M1401.6,141.4h-137.1v-7.8h-5.2v-4.1h-8v7h-3.1v-3h-8.9v-3.7h-19.7v-15.1h-11.7v-4.4h-16.6v15.9h-9.6v-0.1
		h-0.7v-19.8l0.7-0.5v-0.5h-0.7V89.7h-0.2v-1.3h0.4V88h-0.4v-1.4h-0.5V88h-0.4v0.5h0.4v1.3h-0.3V92h-0.8v3.4h-0.4l-0.4,1.1h-0.8v2
		l-0.2,0.5h-1.4v-2.6h-2.6V99h-1.6v-2.6h-2.6V99h-1.6v-2.6h-2.6V99h-1.6v-2.6h-2.6V99h-1.2l-0.4-1v-1.6h-0.6l-0.4-1.1h-0.4V92h-0.8
		v-2.3h-0.3v-1.3h0.4V88h-0.4v-1.4h-0.5V88h-0.4v0.5h0.4v1.3h-0.2V99h-0.2v6.3h-1v0.5l0.7,0.5h0.3v18.1h-6.5v2.9h-4.3v2.6h-7.7v-8.5
		h-19.6v-16.8l-0.8-0.8v-4.2h0.3v-0.5h-0.3v-1.7l-0.2-0.1v-3.2h0.3v-0.5h-0.3v-1.9l-0.3,0.6l-0.1-0.3v-0.4h-0.1l-0.1-0.4v-0.3h-0.1
		l-0.1-0.5h0.1V90h-0.2l-0.2-0.6h0.1v-0.3h-0.2l-0.2-0.6v-0.2h0.3V88h-0.3v-0.2h0.2v-0.2h-0.2v-0.5h-0.2v0.5h-0.2v0.2h0.2V88h-0.3
		v0.4h0.3v0.1l-0.2,0.7h-0.2v0.3h0.1l-0.2,0.6h-0.2v0.4h0.1l-0.1,0.5h-0.1v0.3l-0.1,0.4h-0.1V92l-0.1,0.5l-0.3-0.6v1.9h-0.2v0.5h0.3
		v2l-1.1-0.5v-0.6h0.2V95h-0.2v-0.5h-0.2V95h-0.2v0.2h0.2v0.6l-1.8,0.6v-1.7l0.5-0.4l-0.7-0.3l-0.7-2v-3h0.2v-0.5h-0.2v-4.9l0.7-0.4
		l-0.5-0.5l-0.4-2.4l-0.2-0.6l-0.7-3.5h-0.1v-3.5h0.3v-0.4h-0.3V72l-0.1-0.3v-1.9h-0.2v0.9l-1.2-4.7v-0.5h0.2v-0.3h-0.2v-0.7h-0.3
		v0.7h-0.3v0.3h0.3v0.3l-1.1,4.7v-0.7h-0.3v1.8l-0.1,0.4v0.3h-0.4v0.4h0.4v3.2h-0.2l-0.6-0.7l-5.1-58.5c0.1-0.1,0.1-0.2,0.1-0.3
		c0-0.2-0.2-0.4-0.5-0.4v-1.4h-0.2v-2.4l0.8-0.3v-0.3l-0.8,0.3v-2h-0.3V12l-0.8,0.3v0.3l0.8-0.3v2.3h-0.2V16
		c-0.3,0.1-0.5,0.2-0.5,0.4c0,0.1,0.1,0.2,0.2,0.3l-5.4,58.3l-0.9,1h-0.3v-3.2h0.3v-0.4h-0.2v-2.6h-0.3V71l-1.1-5v-0.4h0.3v-0.3
		h-0.3v-0.7h-0.3v0.7h-0.3v0.3h0.3V66l-1.2,4.5v-0.8h-0.3v2l-0.2,0.6h-0.2v0.4h0.3v3.2h-0.2v-0.8h-0.2v0.8h-0.2v1.2l-0.7,2.6
		l-0.8,2.8h-0.3v0.4h0.4v0.3h-0.3v0.4h0.3v9.8h-0.9v0.3h0.4V94h-0.4v0.2h0.4v4.9h-8.1v5.6l-13.6-3c-3.9-0.6-7.5-1.6-10.9-2.9v-1.4
		h-3.4c-4.2-2-7.8-4.4-10.6-7.2c-2.5-2.4-4.4-5.1-5.7-8c-0.7-1.5-1.2-3-1.5-4.6l-0.4-2.6h-0.1v-4.1c0.1-0.6,0.5-1,1-1.3h0.5V69
		l-9.2-2.3l-9.3,2.5V70h0.2c0.4,0.1,0.8,0.4,1,0.8c-0.5,3.1-1.6,6.1-3.2,8.9c-3.3,5.6-9,10.5-16.1,13.9c-4.9,2.3-10.4,4-16.4,4.8
		c-0.9,0-1.8,0.1-2.7,0.1c-12.7,0-24.2-3.7-32.6-9.6c-4.2-3-7.5-6.5-9.8-10.3c-1.5-2.5-2.5-5.2-3.1-7.9c0.2-0.3,0.5-0.6,0.8-0.7h0.5
		v-0.6l-9.2-2.3l-9.3,2.5V70h0.2c0.6,0.1,1.1,0.7,1.1,1.1h-0.1v0.4c0,4.7-1.5,9.1-4,13.1c-1.8,2.8-4.1,5.4-7,7.7
		c-5.8,4.7-13.5,7.9-22.2,9.1v3.3h-1.1v-3.9h-7.1v3.9h-6.2V118h-4V99.5h-5.8v-2h-6.2v3.7h-2.8v-4.1h-5.8v-3.7h-6.2v4.1h-1.4
		l-3.6-15.6l-6,26.3h-4.4v9.8h-16.3v7.7h-3.3v15.8h-9.5V89.1h-5.5v3.6h-4.8v-3.6h-6v3.6h-5v-3.6h-5.8v3.6h-5v-3.6h-5V43.3l2-1.6
		V30.8h-4.4v3.7h-5.1v-3.7h-7.9v3.7h-5.2v-3.7h-4.4v10.9l2,1.6v5.4h-5.4v3.8h-4.8v-3.8h-7v3.8h-4.7v-3.8h-7v3.8H698v-3.8h-7v3.8
		h-4.7v-3.8h-7v3.8h-5v-3.8h-5.4v-5.4l2-1.6V30.8h-4.4v3.7h-5.2v-3.7h-7.7v3.7h-5.1v-3.7h-4.4v10.9l2,1.6v45.8h-5v3.6h-5v-3.6h-5.8
		v3.6h-5v-3.6h-6v3.6h-5v-3.6h-5.5v52.4h-9.6v-9.1h-0.9l-1.3-1.7V130h0.2v-0.3H597v-0.4h-1.1l-1-1.4l-1,1.4h-1.1v0.4h-0.2v0.3h0.2
		v0.7l-1.3,1.7h-3l-1.3-1.7V130h0.2v-0.3h-0.2v-0.4h-0.9l-1-1.4l-0.3,0.4v-7.1h-0.6v-0.5l0.9-3.1l-0.9-3.1v-7.9h1.1v-1.3h-1.1v-1
		h-2.9l-2.6-9.4l-2.6,9.4h-1v-3.8h-0.8l-0.5-0.6l-1.6-9.4l-1,6.2l-12.9-15.8l-12.9,15.8l-1-6.2l-1.6,9.4l-0.5,0.6h-0.8v3.8h-1
		l-2.6-9.4l-2.6,9.4h-2.9v1h-1.1v1.3h1.1v0.7h-2.4v-11h-2.4v-4.2h-6V96h-5.7v4.2h-2.7v-3.8h-6v2.1h-5.7V118h-3.9v-14.2h-3.4V92.2
		h1.1l-1-1.7v-9.9h0.9l-3.2-4.3h-0.5v-0.6h0.5v-0.6h-0.5v-9.7h0.5v-0.6h-0.5v-3.3h0.4v-3.9h-0.2v-1.3h0.3V56h-0.4v-0.1l-0.6-1.7H491
		h-0.2l-0.6,1.7V56h-0.4v0.3h0.3v1.3h-0.2v2.3h-1.7v1.2h-1v-1.2h-2v1.2h-1v-1.2h-2v1.2h-1v-1.2h-2v1.2h-1v-1.2h-2v1.2h-1v-1.2h-2
		v1.2h-1v-1.2h-2v1.2h-1v-1.2h-1.9v-2.3h-0.2v-1.3h0.3V56H467v-0.1l-0.6-1.7h-0.2v-1.1h0.7v-0.3h-0.7v-0.7h-0.3v0.7h-0.6v0.3h0.7
		v1.1h-0.2l-0.6,1.7V56h-0.4v0.3h0.3v1.3h-0.2v3.9h0.4v3.3h-0.5v0.6h0.5v9.7h-0.5v0.6h0.5v0.6h-0.5l-3.2,4.3h0.9v9.9l-1,1.7h1.1
		v18.5h-11.2v4.9h3v2.3h-5.1l-1.8-2.3h-20.6v5.3h-4.2v-6h-1.8V73.3h-0.2v-6.6h1.8v-0.6h-1.8v-3.2l0.3-0.3l-0.3-0.5l-0.2-0.5l0.1-0.5
		l-0.1-0.4V59l0.3-0.5v-1l-1-2.9h0.1v-0.4h-0.1l0.1-0.1l-0.2-0.4c0.1-0.1,0.2-0.2,0.2-0.4c0-0.2-0.2-0.4-0.4-0.4
		c-0.2,0-0.4,0.2-0.4,0.4c0,0.2,0.1,0.3,0.2,0.4l-0.2,0.4l0.1,0.1h-0.1v0.4h0.1l-0.8,2.5c0,0-2.2-0.4-2.1-2.9h-0.5v-0.3h0.2
		l-0.2-0.3l-0.1-1.2h0.3l-0.4-0.6l-0.3-0.9l-0.4-1.5V49h-0.1l0.1-0.1l-0.2-0.4v-0.1c0.1-0.1,0.2-0.2,0.2-0.3c0-0.2-0.2-0.4-0.4-0.4
		c-0.2,0-0.4,0.2-0.4,0.4s0.1,0.3,0.2,0.3v0.1l-0.2,0.3v0.5l-0.1,0.2l-3.4-7.1h0.2V42h0.1l-0.2-0.2l-0.1-0.2v-1l0.1-0.1l-0.2-0.1
		v-0.2h-0.1V40l-0.1-0.1c0.1-0.1,0.1-0.3,0-0.4c-0.2-0.1-0.4-0.4-0.6-0.6c0.1,0,0.1-0.1,0.1-0.2c0-0.1-0.1-0.2-0.2-0.2v-0.2
		l-0.4-0.4c0,0,0-0.1-0.1-0.1H409l-0.1-0.3c0,0,0.1,0,0.1-0.1c0,0,0-0.1-0.1-0.1h-0.1c0.4-0.2,0.8-0.7,0.8-1.2c0-0.4-0.2-0.8-0.4-1
		c0,0-0.7-1.5-0.5-3.1h0.5l0.3-0.4l0.2-0.4v-0.6l-0.1-0.1l0.3-0.4l0.2-0.4l0.1-0.5v-0.5l-0.4,0.3l-0.4,0.4v-0.8l-0.4,0.5l-0.5,0.5
		l-0.3,0.4l-0.3,0.4l-0.3-0.4v0.3l0.1,0.2l0.1,0.2V31l0.1,0.1l0,0l0,0.1l-0.1,0.2h-0.3v0.4l0.1,0.1V32l0.1,0.1v0.8l-0.1,0.5l0.2,0.3
		V34l0.1,0.2l0.1,0.7c-0.4,0.2-0.7,0.7-0.7,1.2s0.3,1,0.8,1.2H408c0,0-0.1,0-0.1,0.1s0,0.1,0.1,0.1l-0.1,0.3h-0.1c0,0-0.1,0-0.1,0.1
		l-0.4,0.4v0.2c-0.1,0-0.2,0.1-0.2,0.2c0,0.1,0.1,0.2,0.1,0.2c-0.2,0.2-0.3,0.5-0.6,0.6c-0.2,0.1-0.2,0.2,0,0.4l-0.3,0.1v0.2h-0.1
		v0.2l-0.2,0.1l0.1,0.1v1l-0.1,0.2l-0.2,0.2h0.1v0.4h0.2l-3.4,7.1l-0.1-0.2v-0.4l-0.2-0.3v-0.1c0.1-0.1,0.2-0.2,0.2-0.3
		c0-0.2-0.2-0.4-0.4-0.4c-0.2,0-0.4,0.2-0.4,0.4s0.1,0.3,0.2,0.3v0.1l-0.2,0.4l0.1,0.1h-0.1v0.4l-0.4,1.5l-0.3,0.9l-0.4,0.6h0.3
		l-0.1,1.2l-0.2,0.3h0.2v0.3h-0.5c0.2,2.6-2.1,2.9-2.1,2.9l-0.8-2.5h0.1v-0.4h-0.1l0.1-0.1l-0.2-0.4c0.1-0.1,0.2-0.2,0.2-0.4
		s-0.2-0.4-0.4-0.4c-0.2,0-0.4,0.2-0.4,0.4s0.1,0.3,0.2,0.4l-0.2,0.4l0.1,0.1h-0.1v0.4h0.1l-1,2.9v1l0.3,0.5v1.8l-0.1,0.4l0.1,0.5
		l-0.2,0.5l-0.3,0.5l0.3,0.3v3.2h-1.8v0.6h1.8v51.2h-5.1v3h-23.6v1.9h-4.2v1.9h-4.8v-21.5l-1.5-7.2l-1.5,6h-3l-1.5-5.7l-1.5,6.4
		v17.4H343v3h-3.6v-21.5h-6.1v-1.6l0.6-0.1l-0.6-0.9h-1.4v1.8h-0.6v-1.8H330v1.8h-0.2v-4.5h-10.7v6.4h-9.2v4.2h-1v-2.7h-3v2.7h-1
		v-2.7h0.4v-0.9h-0.9V98h0.5l0.4-0.6l-0.9-1v-1.8h0.5l-0.5-0.9V92l0.5-0.3l-0.8-1.1h-0.4v-1.8h0.4l-0.7-0.9l-2.6-8.4v-1.1h0.2V78
		h0.2v-0.3H301v-0.2h-0.2v-0.1h-0.1v-0.2h-0.1V77h0.1v-0.5h0.4v-0.2h-0.5v-1.6h1.1v-0.2h-1.1v-1.7h0.4v-0.2h-0.4v-2.9h-0.2v2.9h-0.3
		v0.2h0.3v1.7h-1.1v0.2h1.1v1.6h-0.5v0.2h0.4V77h0.2v0.2h-0.2v0.2h-0.2v0.1h-0.2v0.2h-0.3V78h0.3v0.2h0.2v0.9l-2.5,8.8l-0.7,0.6
		l0.5,0.4v1.6H297l-0.6,1.3l0.5,0.3v1.3l-0.5,1.2h0.5V96h-2.4v2.6h-1.2V96h-3.6v2.6h-1.2V96H285v2.6h-1.2V96h-3.4v2.6h-1.1V96H276
		V85.1h0.7v-0.8H276v-7h0.7v-0.8H276v-3.1h1.5v-1.2h-1V69h1v-1.4h-1v-1.8h0.3v-0.6h-0.3v-0.9c0.4-0.1,0.7-0.4,0.7-0.9
		s-0.4-0.9-0.9-0.9V62h0.2v-0.4h-0.2v-0.5c0.4-0.1,0.7-0.3,0.7-0.4c0-0.2-0.3-0.3-0.8-0.5l-2.1-8.9h0.6V51h-0.6l-0.1-0.3h0.7v-0.3
		h-0.8v-0.8h0.5v-0.5h-1.1v-0.2h0.3l-0.5-0.8V47v-1.5h1.1v-0.2h-1.1V45h1.1v-0.1h-1.1V42h-0.2v2.9h-1.2V45h1.2v0.4h-1.2v0.2h1.2V47
		h-0.4v0.3h0.4v1l-0.5,0.9h0.3v0.2h-0.6v0.5h0.5v0.8h-0.8V51h0.7l-0.1,0.3h-0.7v0.3h0.6l-2,8.9c-0.4,0.1-0.7,0.3-0.7,0.4
		c0,0.2,0.2,0.3,0.6,0.4v0.5h-0.3V62h0.3v0.6c-0.5,0-0.9,0.4-0.9,0.9c0,0.4,0.2,0.7,0.5,0.8v1h-0.3v0.6h0.3v2h-2v2.2h-1.2V68h-3.4
		v2.2h-1.1V68H259v2.2h-1V68h-3.4v2.2h-1.2V68h-2v-2h0.3v-0.6h-0.3v-1c0.3-0.1,0.5-0.5,0.5-0.8c0-0.5-0.4-0.9-0.9-0.9V62h0.3v-0.4
		H251v-0.5c0.4-0.1,0.6-0.3,0.6-0.4c0-0.2-0.3-0.3-0.7-0.4l-2-8.9h0.6v-0.3h-0.7l-0.1-0.3h0.7v-0.3h-0.8v-0.8h0.5v-0.5h-0.6V49h0.3
		l-0.5-0.9v-1h0.4V47h-0.4v-1.2c0.1,0,0.2-0.1,0.2-0.2l0.1-0.1h0.8v-0.2h-0.8c0.1-0.1,0.1-0.2,0.1-0.4h0.7v-0.1h-0.6
		c0-0.3-0.1-0.5-0.3-0.7l-0.2-0.2v-2h-0.2v1.9h-0.3c-0.3,0-0.6,0.1-0.7,0.3c-0.2,0.2-0.3,0.5-0.3,0.8s0.1,0.6,0.3,0.8
		s0.5,0.3,0.7,0.3h0.3v1h-0.4v0.3h0.4v1.1l-0.5,0.8h0.3v0.2h-0.6v0.5h0.5v0.8H247V51h0.7l-0.1,0.3H247v0.3h0.6l-2.1,8.9
		c-0.5,0.1-0.8,0.3-0.8,0.5s0.3,0.3,0.7,0.4v0.5h-0.2V62h0.2v0.6c-0.5,0-0.9,0.4-0.9,0.9c0,0.4,0.3,0.8,0.7,0.9v0.9h-0.3v0.6h0.3
		v1.8h-1v1.4h1v3.2h-1v1.2h1.5v3.1H245v0.8h0.7v7H245v0.8h0.7V96h-3.3v2.6h-1.1V96h-3.4v2.6h-1.2V96h-3.5v2.6H232V96h-3.6v2.6h-1.2
		V96h-2.4v-1.4h0.5l-0.5-1.2V92l0.5-0.3l-0.6-1.3h-0.4v-1.6l0.5-0.4l-0.7-0.6l-2.5-8.8v-0.9h0.2V78h0.3v-0.3h-0.3v-0.2h-0.2v-0.1
		h-0.2v-0.2h-0.2V77h0.2v-0.5h0.4v-0.2h-0.5v-1.6h1.1v-0.2h-1.1v-1.7h0.3v-0.2h-0.3v-2.9h-0.2v2.9h-0.4v0.2h0.4v1.7H220v0.2h1.1v1.6
		h-0.8v0.2h0.4V77h0.1v0.2h-0.1v0.2h-0.1v0.1h-0.3v0.2h-0.2V78h0.2v0.2h0.2v1.1l-2.6,8.4l-0.7,0.9h0.4v1.8h-0.4l-0.8,1.1l0.5,0.3
		v1.7l-0.5,0.9h0.5v1.8l-0.9,1l0.4,0.6h0.5v5.5H216v0.9h0.4v2.7h-1v-2.7h-3v2.7h-1.3v-2.7h-2.8v2.7h-1v-2.7h-3.2v2.7H203v-2.7h-3
		v2.7h-1v-2.7h-3.4v2.7h-0.8v-2.4h-1.6V100l0.5-0.3l-0.5-1H192v1.9h-0.7v-1.8H190v1.8h-0.8v-1.8h-1.4l-0.6,0.9l0.6,0.1v4.6H187v0.6
		h1.1v20.5h-2.6v-16.3h-16.1v4.5H158v15.5h-19.1v3.8h-8.6v3h-3v-7.2h-7.7v4.2h-5v8H0.3v28.9V200h1401.3V141.4z M705.5,136.8V136
		c0-0.3,0.2-0.9,0.3-1.2s0.1-0.5,0-0.9c0-0.4-0.1-0.7-0.1-1.5c0-0.7,0.1-1.2,0.2-1.6c0.1-0.4,0.1-0.8,0.1-0.9c0-0.2,0-0.2,0.1-0.3
		c0,0.1,0.1,0,0.1,0v0.2c0,0.1,0.1,0.6,0.2,1.2c0,0.6,0.1,1.2,0.1,1.6s-0.1,1.1-0.1,1.4c0,0.4,0.2,1,0.2,1.3c0.1,0.3,0,0.5,0,0.9
		c0,0.4,0,1.2,0.1,1.6c-0.1,0.4-0.1,0.9-0.1,1.2l0,0c-0.1,0.3-0.1,0.5-0.2,0.6c-0.1,0.1,0,0.1,0,0.3v0.8c0,0.3-0.1,0.5-0.1,0.7h-0.8
		v-0.2c0-0.1,0-0.2-0.1-0.3c0-0.1-0.1-0.2-0.1-0.4c-0.1-0.2,0-0.8,0-1.4c0-0.5,0.1-1,0.2-1.3C705.6,137.5,705.5,137.1,705.5,136.8z
		 M887.6,111.5v-4.7h24.8v4.7H887.6z M1003.4,123.3v-1.8h-24.3v-3h-7.4v-6.3h-20.9v3.3h-4.6v5.9h-4.3v-5.2H936v-9.5h76.3v17.6h-0.1
		h-4.5v-1H1003.4z M1016.3,101.8l0.4-8l0.1-2.1c0.5-0.4,1.2-0.7,2-0.7c1.1,0,2.2,0.5,2.6,1.2c0,0,0,0.8,0,0.8l-0.2,8.3l-0.9-3.8
		l-1.2,4.3H1016.3z M1077.7,106.7v15.8l0,0h-4.1l-3.1,2.6h-7.7v-18.4H1077.7z M1053.3,101.8v-2.6c3.2,1.1,6.7,2,10.4,2.6H1053.3z
		 M1038.7,90.9c2.8,2.5,6.3,4.8,10.2,6.6h-6.7v4.3h-7l-1.2-12.4l-1-5.6C1034.4,86.4,1036.3,88.8,1038.7,90.9z M1030.9,101.8h-1.4
		l-0.3-3.6c0-0.4,0.1-1.2,0.5-1.2c0.4,0,0.9,0.8,0.9,1.2L1030.9,101.8z M1030.6,95.3l-1.5,0.2l-0.3-5c0-0.4-0.4-5.5,0-5.5
		c0.5,0,1.3,5,1.3,5.4L1030.6,95.3z M1025.7,72.4h4.1v1.8h-4.1V72.4z M1020.2,72.4h1v1.8h-1V72.4z M1019.6,78.8
		c-0.5,0.8-1,1.6-1.6,2.3C1018.5,79.7,1019.1,78.9,1019.6,78.8z M1017.4,72.4h0.6v1.8h-0.6V72.4z M1003.7,90.5L1003.7,90.5
		c4.1-2.9,7.5-6.4,9.8-10.3c1-1.7,1.9-3.6,2.5-5.5v0.8l-1.5,9.7c-3.1,3-6.9,5.6-11.2,7.7c-4.1,1.9-8.6,3.4-13.4,4.4
		C995,95.6,999.7,93.3,1003.7,90.5z M979.8,99.4c12-0.4,22.8-4.1,30.7-9.7c4.3-3,7.7-6.6,10.1-10.7c1.9-3.2,3.1-6.6,3.5-10.2h0.1
		c-0.3,3.9-1.6,7.7-3.6,11.1c0.8,1.7,1.1,4.8,0.9,8.4h0c0,0.2,0,0.9-0.1,1.1l-4.7-0.2c0.1-1.6,0.2-3.1,0.5-4.4c-1,1.1-2,2.2-3.2,3.2
		l-0.1,0.6l-1.3,13.3h-77.2l-1.1-12.5l-0.7-4.2c3.3,3.7,7.7,6.8,12.7,9.2c7.2,3.5,16,5.5,25.3,5.5C974.4,99.9,977.2,99.7,979.8,99.4
		z M934.2,79c3.6,6,9.6,11.1,17,14.7c5.2,2.5,11.2,4.3,17.7,5.1c-11.2-0.5-21.4-3.9-28.8-9.2c-2.7-1.9-5-4-6.9-6.3l-1.3-8.1h0
		l-0.1-1.4C932.4,75.6,933.2,77.4,934.2,79z M929.7,101.8l-0.3-3.6c0-0.4,0.1-1.2,0.5-1.2s0.9,0.8,0.9,1.2l0.3,3.6H929.7z
		 M930.9,95.3l-1.5,0.2l-0.3-5c0-0.4-0.4-5.5,0-5.5c0.5,0,1.3,5,1.3,5.4L930.9,95.3z M926,72.4h4.1v1.8H926V72.4z M920.5,72.4h1v1.8
		h-1V72.4z M917.6,72.4h0.6v1.8h-0.6V72.4z M920,78.8c0.2-0.1,0.5,0,0.6,0.1c-0.7,1.7-1.7,3.3-2.8,4.9c-0.1,0.1-0.1,0.2-0.2,0.3
		C918.2,80.9,919.1,79,920,78.8z M917.3,86.3c1.7-1.9,3-3.9,4.1-6c0.4,1.6,0.5,4.1,0.5,6.2c-0.1,0.8-0.2,1.6-0.2,1.8h0v0.8l-4.7,0.1
		C917.1,88.2,917.1,87.2,917.3,86.3z M916.6,99v-0.4l0.4-7.1c0.4-0.3,1.9-1.1,3-0.6c0.7,0.2,1.3,0.6,1.5,1V92l0.2,1l-0.2,8.8h-5
		L916.6,99z M905.4,92.9c4.6-3.5,8.1-7.8,10-12.7l-1.1,7.8c-1.4,1.4-2.9,2.7-4.6,3.9c-6.1,4.4-13.9,7.6-22.9,9
		C894,99.6,900.4,96.7,905.4,92.9z M882.9,101.6c10.6-0.9,20.1-4.2,27.2-9c1.4-1,2.8-2,4-3.1l-1.2,12.3h-30V101.6z M766.2,105h16
		v22.6h-16V105z M741,65c0-2.3,0.7-3.3,3-5.7c2.3,2.4,3,3.4,3,5.7v13.7h-6V65z M741,108.3c0-2.3,0.7-3.3,3-5.7c2.3,2.4,3,3.4,3,5.7
		v20.1h-6V108.3z M721,64.2c3.4,1.9,4.4,2.6,4.4,4.5v12.7h-8.8V68.7h0C716.6,66.7,717.7,66.1,721,64.2z M696.3,68.7L696.3,68.7
		c0-2,1.1-2.6,4.4-4.5c3.4,1.9,4.4,2.6,4.4,4.5v12.7h-8.8V68.7z M680.5,64.2c3.4,1.9,4.4,2.6,4.4,4.5v12.7h-8.8V68.7h0
		C676.1,66.7,677.2,66.1,680.5,64.2z M675.5,106l2.1-1.6v-1.6h-2.1c0-1.8,0.2-3.6,3.1-4.8c7.1-3.1,18.4-4.6,21.7-4.6
		s14.6,1.5,21.7,4.6c2.9,1.3,3.1,3,3.1,4.8H723v1.6l2.6,0.5h0v36.5h-18c-0.1-0.1-0.1-0.2-0.1-0.4c0-0.2-0.1-0.5-0.1-0.6v-1.1
		c0-0.2,0.1-0.8,0.2-1.1c0.1-0.3,0.3-1,0.4-1.6c0.1-0.6,0-1.2,0-1.4v-1.4c0-0.5,0.2-1.1,0.3-1.7c0.1-0.6,0.4-1.1,0.4-1.1
		c0.1-0.2,0.2-0.8,0.2-1c0.1-0.2,0.1-0.5,0.1-0.5v1c0,0.1,0.1,0.1,0.1,0.1c0.1,0,0.2-0.2,0.2-0.4v0.5c0,0.2-0.2,0.3-0.2,0.3
		c0,0.1,0.1,0.1,0.1,0.1c0.1,0,0.1,0,0.2-0.1c0.1,0,0.1,0,0.2-0.1c0.1-0.1,0.1-0.1,0.2-0.1s0.1-0.1,0.2-0.1c0,0,0.1,0,0.2-0.1
		c0.1-0.1,0.1-0.1,0.1-0.2c0-0.1,0.1-0.3,0.1-0.4s0-0.3-0.1-0.6c0-0.3-0.1-0.5-0.1-0.7c0-0.1,0-0.3-0.1-0.7
		c-0.1-0.4-0.1-0.7-0.1-1.1v-0.8h0.1c0.1,0,0.1,0,0-0.1c0-0.1,0-0.1,0.1-0.2c0-0.1-0.1-0.2-0.1-0.3c0-0.1-0.1-0.1-0.1-0.1
		c-0.1,0,0,0,0-0.1c0-0.1,0-0.1-0.1-0.2c-0.1-0.1,0-0.1,0-0.2s-0.1-0.3-0.1-0.4c-0.1-0.2-0.3-0.8-0.4-1.3c-0.2-0.6-0.2-1-0.3-1.4
		c-0.1-0.4-0.2-1-0.3-1.2c-0.1-0.2-0.1-0.5-0.3-0.6c-0.2-0.2-0.5-0.3-0.7-0.3c-0.1,0-0.1-0.1-0.2-0.1c0,0,0,0,0-0.1
		c0.1,0.1,0.2,0.2,0.2,0.2c-0.1,0-0.2-0.3-0.3-0.7c-0.2-0.4-0.2-0.8-0.3-1.2c-0.1-0.4-0.2-0.6-0.6-1.3c-0.4-0.7-1.2-0.7-1.6-0.6
		c-0.4,0-0.5,0.2-0.8,0.5c-0.2,0.3-0.5,1.2-0.6,1.6c-0.1,0.2-0.1,0.4-0.1,0.6c0,0.3,0,0.7-0.1,1v0.2c0.1,0,0.2,0,0.3-0.1v0.2
		c0,0.1-0.1,0.1-0.2,0.1c-0.2,0.2-0.5,0.2-0.8,0.3c-0.1,0-0.1,0.1-0.2,0.2c0,0-0.1,0.2-0.2,0.7c-0.1,0.5,0,0.6,0,0.8v0.5
		c0,0.1,0,0.2-0.1,0.7s-0.1,0.7-0.1,0.8v0.9c0,0.1-0.1,0.1-0.1,0.2v0.2c0,0.1-0.1,0.2-0.1,0.4s-0.1,0.3-0.1,0.4
		c0,0.1-0.1,0.2-0.1,0.3c0,0.1,0,0.2-0.1,0.2v0.2c0,0.1,0.2,0.1,0.2,0.1c0,0.1,0,0.7-0.1,0.9c0,0.2-0.2,0.8-0.2,1
		c0,0.1-0.1,0.3-0.1,0.5c0,0.2-0.1,0.4-0.1,0.6v0.5c0,0.1,0.1,0.1,0.1,0.2v0.2c0,0.1,0.1,0.2,0.1,0.3c0.1,0.1,0.1,0.2,0.2,0.3
		c0.1,0.1,0.2,0.2,0.3,0.2c0.1,0.1,0.2,0,0.1-0.1c0-0.1-0.1-0.2-0.1-0.2c0.1,0,0.3,0.1,0.3,0c0-0.1-0.2-0.2-0.2-0.2v-0.9
		c0-0.1,0-0.4-0.1-0.5c-0.1-0.2-0.1-0.3-0.1-0.4c0-0.1,0-0.5,0.1-0.7c0-0.1,0.3-0.7,0.5-1l0.2-0.6h0.2c0.2,0,0.1,0,0.1-0.1
		c0-0.1,0-0.2,0.1-0.3c0-0.1,0-0.1,0.1-0.2c0.1-0.1,0-0.2,0.1-0.4c0.1-0.1,0.1,0.1,0.1,0.2v0.3c0,0.1-0.1,0.1-0.1,0.2
		c-0.1,0.1,0.1,0.2,0.1,0.3c0,0.1-0.1,0.1-0.2,0.2c-0.1,0.1,0,0.1,0.1,0.2s0,0.1,0,0.2c0,0.1,0,0.1-0.1,0.2v0.9c0,0.1,0,0.1-0.1,0.3
		c-0.1,0.2,0,0.1,0,0.2s0,0.4-0.1,0.5v0.2c0,0.2,0.1,0.1,0.1,0.1v0.5c0,0.4,0.3,1.3,0.3,1.7c0.1,0.4,0.2,1.1,0.3,1.5
		c0.1,0.4,0.1,0.6,0.1,0.8v0.8c0,0.3-0.1,0.8-0.1,1.2c0,0.5,0.1,1.2,0.1,1.7c0.1,0.4,0.1,1.1,0.2,1.6s0.2,1.2,0.2,1.4s0,0.4-0.1,0.5
		c-0.1,0.1,0,0.1,0,0.3h-8.6v-0.1c-0.1-0.1-0.1-0.2-0.1-0.2v-0.2c0-0.1,0.2-0.8,0.3-1.2c0.1-0.4,0-0.8,0-0.8h0.2v-0.2
		c0-0.1,0.1-0.5,0.1-0.7c0-0.3-0.1-0.3,0-0.5s0.2-0.6,0.3-0.8l0.1-0.2c0,0-0.1,0-0.1-0.1v-0.2c0-0.1,0.1-0.1,0.1-0.4s-0.1-0.4,0-0.6
		c0-0.2,0-0.4-0.1-0.7s-0.2-0.4-0.2-0.5c0-0.1,0-0.1-0.1-0.2v-0.3l0.1,0.2h0.1c0,0,0,0.2,0.1,0.5c0.1,0.2,0.4,0.9,0.4,1.1v0.6
		c0,0-0.1,0-0.1,0.1c0,0.1,0.1,0.1,0.1,0.1v0.3c0,0.1,0.1,0.1,0.2,0.2c0.1,0,0.2,0.1,0.3,0.1h0.1l0.4,0.4c0,0,0.1,0.2,0.3,0.2
		s0.3-0.2,0.2-0.4c-0.1-0.1-0.2-0.1-0.2-0.1v-0.1c0-0.1-0.5-0.3-0.5-0.3s0-0.2-0.1-0.4s-0.2-0.3-0.2-0.3c0-0.1,0-1.2-0.1-1.5
		s-0.2-0.7-0.2-0.7s-0.1-0.3,0-0.4c0.1-0.1,0.1-0.2,0.1-0.3c0-0.1-0.1-0.2-0.2-0.4c-0.1-0.1-0.3-0.8-0.6-1c-0.2-0.3-0.5-0.5-0.6-0.5
		l-0.4-0.2l-0.1-0.1l0.2-0.2c0.1-0.1,0.1-0.2,0.1-0.2s0.1,0,0.1-0.1c0-0.1,0.1-0.2,0.1-0.2l0.4-0.4c0.1-0.1,0.3-0.4,0.1-0.5
		c-0.2-0.2-0.3-0.1-0.4-0.3c0-0.2-0.1-0.7-0.4-0.9c-0.4-0.2-1.1-0.2-1.5-0.1c-0.3,0.1-0.5,0.4-0.6,0.6c0,0.2,0,0.6-0.1,0.6
		c0,0.1-0.4,0.4-0.4,0.6c0.1,0.2,0.2,0.3,0.2,0.3l0.2,0.1c0,0,0.1,0.2,0.2,0.3c0.1,0.1,0.2,0,0.2,0s0.1,0.2,0.1,0.3
		c0,0.1-0.1,0.2-0.1,0.2s-0.3,0.2-0.5,0.3c-0.1,0.1-0.9,0.5-1,0.6c-0.1,0.1-0.5,0.4-0.6,0.5c-0.1,0.1-0.6,0.4-0.6,0.4v0.1
		c0,0-0.7,0.8-0.9,1c-0.1,0.2-0.4,0.7-0.4,0.7s-0.3,0.2-0.4,0.3c-0.1,0.1-0.2,0.3-0.2,0.4s0.1,0.2,0.2,0.2h0.2l0.1-0.1h0.1v0.1
		c0.1,0,0.1,0,0.2-0.1c0.1-0.1,0.2-0.2,0.2-0.4c0-0.2,0-0.2,0.1-0.3c0-0.1,0.2-0.3,0.4-0.4c0.1-0.1,0.5-0.3,0.6-0.5s0.4-0.3,0.4-0.3
		l0.1,0.1l0.1-0.1c0,0,0.1-0.1,0.3-0.2l0.4-0.2v1.4c0,0.3-0.1,0.6-0.1,0.8s0.1,0.9,0,1.2c-0.1,0.3-0.1,0.5-0.1,0.6
		c0.1,0.1,0.1,0.1,0.1,0.2s0,0.2,0.1,0.2h0.1c0,0,0.2,0.7,0.1,1c-0.1,0.3-0.4,0.6-0.3,0.9c0.1,0.2,0.1,0.5,0.2,0.5s0,0.1,0,0.2
		s0.1,0.1,0.1,0.1l-0.1,0.2c0,0-0.1,0.6-0.1,0.8c0,0.2,0.1,0.6,0.5,0.7c0.3,0.1,0.4-0.1,0.5-0.3s0.2-0.4,0.2-0.6V141
		c0-0.1,0.1-0.2,0.1-0.3c0-0.1,0.2-0.1,0.2-0.2c0.1-0.1,0.1-0.2,0.2-0.3l0.1-0.1l0.1,0.1h0.1c0,0,0.1,0.3,0,0.5s0,0.7,0,0.9
		c-0.1,0.3-0.1,0.6-0.2,0.6c0,0-0.1,0.1-0.1,0.3h-18.5V106z M654.3,65c0-2.3,0.7-3.3,3-5.7c2.3,2.4,3,3.4,3,5.7v13.7h-6V65z
		 M654.3,108.3c0-2.3,0.7-3.3,3-5.7c2.3,2.4,3,3.4,3,5.7v20.1h-6V108.3z M619.4,105h16v22.6h-16V105z M415.7,59.2
		c0.3-0.8,2-1.1,2.7,0.1v3.2h-2.7V59.2z M398.5,59.3c0.7-1.2,2.4-0.8,2.7-0.1v3.3h-2.7V59.3z M247.6,44.4c0.1-0.1,0.2-0.2,0.4-0.2
		c0.1,0,0.2,0,0.3,0.1v0.5h-0.1h-0.8C247.4,44.7,247.5,44.5,247.6,44.4z M247.6,45.3c0,0-0.1,0-0.1-0.1c-0.1-0.1-0.1-0.2-0.1-0.3
		h0.8v0.4H247.6z"/>
</g>
</svg>
