<svg xmlns="http://www.w3.org/2000/svg" width="1920.5" height="190.1" viewBox="0 0 1920.5 190.1">
  <path id="Path_315" data-name="Path 315" d="M1576.039,141.4v-7.8H1569.1v-4.1h-10.669v7H1554.3v-3h-11.87v-3.7h-26.273V114.7h-15.6v-4.4h-22.139v15.9h-12.8v-.1h-.933V106.3l.933-.5v-.5h-.933V89.7h-.267V88.4h.533V88h-.533V86.6h-.667V88h-.534v.5h.534v1.3h-.4V92h-1.067v3.4h-.534l-.533,1.1h-1.067v2l-.267.5h-1.867V96.4h-3.468V99h-2.134V96.4h-3.468V99h-2.134V96.4h-3.468V99H1441.2V96.4h-3.468V99h-1.6l-.533-1V96.4h-.8l-.534-1.1h-.533V92h-1.067V89.7h-.4V88.4h.533V88h-.533V86.6h-.667V88h-.534v.5h.534v1.3h-.267V99h-.267v6.3h-1.334v.5l.934.5h.4v18.1H1422.4v2.9h-5.735v2.6h-10.269v-8.5h-26.14V104.6l-1.067-.8V99.6h.4v-.5h-.4V97.4l-.267-.1V94.1h.4v-.5h-.4V91.7l-.4.6-.133-.3v-.4h-.133l-.133-.4v-.3h-.133l-.133-.5h.133V90h-.267l-.267-.6h.133v-.3h-.267l-.267-.6v-.2h.4V88h-.4v-.2h.267v-.2h-.267v-.5h-.267v.5h-.267v.2h.267V88h-.4v.4h.4v.1l-.267.7h-.267v.3h.133l-.267.6h-.267v.4h.133l-.133.5h-.133v.3l-.133.4h-.133V92l-.133.5-.4-.6v1.9h-.267v.5h.4v2l-1.467-.5v-.6h.267V95h-.267v-.5h-.267V95h-.267v.2h.267v.6l-2.4.6V94.7l.667-.4-.934-.3-.934-2V89h.267v-.5h-.267V83.6l.934-.4-.667-.5-.533-2.4-.267-.6-.934-3.5h-.133V72.7h.4v-.4h-.4V72l-.133-.3V69.8h-.267v.9l-1.6-4.7v-.5h.267v-.3h-.267v-.7h-.4v.7h-.4v.3h.4v.3l-1.467,4.7v-.7h-.4v1.8l-.133.4v.3h-.534v.4h.534v3.2h-.267l-.8-.7-6.8-58.5a.314.314,0,0,0,.133-.3c0-.2-.267-.4-.667-.4V14.6h-.267V12.2l1.067-.3v-.3l-1.067.3v-2h-.4V12l-1.067.3v.3l1.067-.3v2.3h-.267V16c-.4.1-.667.2-.667.4,0,.1.133.2.267.3l-7.2,58.3-1.2,1h-.4V72.8h.4v-.4h-.267V69.8h-.4V71l-1.467-5v-.4h.4v-.3h-.4v-.7h-.4v.7h-.4v.3h.4V66l-1.6,4.5v-.8h-.4v2l-.267.6h-.267v.4h.4v3.2h-.267v-.8h-.267v.8h-.267v1.2l-.934,2.6-1.067,2.8h-.4v.4h.534v.3h-.4v.4h.4v9.8h-1.2v.3h.534V94h-.534v.2h.534v4.9h-10.8v5.6l-18.138-3a89.752,89.752,0,0,1-14.537-2.9V97.4h-4.535a53.865,53.865,0,0,1-14.137-7.2,27.2,27.2,0,0,1-7.6-8,15.947,15.947,0,0,1-2-4.6l-.533-2.6h-.133V70.9a2.07,2.07,0,0,1,1.334-1.3h.667V69l-12.27-2.3-12.4,2.5V70h.267a2.115,2.115,0,0,1,1.334.8,22.613,22.613,0,0,1-4.268,8.9c-4.4,5.6-12,10.5-21.472,13.9a94.13,94.13,0,0,1-21.872,4.8c-1.2,0-2.4.1-3.6.1-16.938,0-32.275-3.7-43.478-9.6a42.242,42.242,0,0,1-13.07-10.3,23.112,23.112,0,0,1-4.134-7.9,2.3,2.3,0,0,1,1.067-.7h.667v-.6l-12.27-2.3-12.4,2.5V70h.267c.8.1,1.467.7,1.467,1.1h-.133v.4c0,4.7-2,9.1-5.335,13.1a37.159,37.159,0,0,1-9.336,7.7c-7.735,4.7-18,7.9-29.608,9.1v3.3h-1.467v-3.9h-9.469v3.9h-8.269V118h-5.335V99.5H1034.3v-2h-8.269v3.7h-3.734V97.1h-7.735V93.4h-8.269v4.1h-1.867l-4.8-15.6-8,26.3h-5.868V118H964.013v7.7h-4.4v15.8h-12.67V89.1h-7.335v3.6h-6.4V89.1h-8v3.6h-6.668V89.1H910.8v3.6h-6.668V89.1h-6.668V43.3l2.667-1.6V30.8h-5.868v3.7h-6.8V30.8H876.924v3.7h-6.935V30.8H864.12V41.7l2.667,1.6v5.4h-7.2v3.8h-6.4V48.7h-9.336v3.8H837.58V48.7h-9.336v3.8h-7.735V48.7h-9.336v3.8H804.9V48.7h-9.336v3.8H788.9V48.7h-7.2V43.3l2.667-1.6V30.8H778.5v3.7h-6.935V30.8H761.293v3.7h-6.8V30.8h-5.868V41.7l2.667,1.6V89.1h-6.668v3.6h-6.668V89.1h-7.735v3.6H723.55V89.1h-8v3.6H708.88V89.1h-7.335v52.4h-12.8v-9.1h-1.2l-1.734-1.7V130h.267v-.3h-.267v-.4H684.34l-1.334-1.4-1.334,1.4h-1.467v.4h-.267v.3h.267v.7l-1.734,1.7h-4l-1.734-1.7V130H673v-.3h-.267v-.4h-1.2l-1.334-1.4-.4.4v-7.1H669v-.5l1.2-3.1-1.2-3.1v-7.9h1.467v-1.3H669v-1h-3.868l-3.468-9.4-3.468,9.4h-1.334v-3.8H655.8l-.667-.6L653,90.5l-1.334,6.2-17.2-15.8-17.2,15.8-1.334-6.2-2.134,9.4-.667.6h-1.067v3.8h-1.334l-3.468-9.4-3.468,9.4h-3.868v1h-1.467v1.3h1.467v.7h-3.2v-11h-3.2V92.1h-8V96h-7.6v4.2h-3.6V96.4h-8v2.1h-7.6V118h-5.2V103.8h-4.534V92.2h1.467L549.1,90.5V80.6h1.2l-4.268-4.3h-.667v-.6h.667v-.6h-.667V65.4h.667v-.6h-.667V61.5h.534V57.6h-.267V56.3h.4V56H545.5v-.1l-.8-1.7h-.267V53.1h.934v-.3h-.934v-.7h-.4v.7H543.5v.3h.934v1.1h-.267l-.8,1.7V56h-.533v.3h.4v1.3h-.267v2.3H540.7v1.2h-1.334V59.9H536.7v1.2h-1.334V59.9H532.7v1.2h-1.334V59.9H528.7v1.2h-1.334V59.9H524.7v1.2h-1.334V59.9H520.7v1.2h-1.334V59.9H516.7v1.2h-1.334V59.9h-2.534V57.6h-.267V56.3h.4V56h-.533v-.1l-.8-1.7h-.267V53.1h.934v-.3h-.934v-.7h-.4v.7h-.8v.3h.934v1.1h-.267l-.8,1.7V56h-.533v.3h.4v1.3h-.267v3.9h.533v3.3h-.667v.6h.667v9.7h-.667v.6h.667v.6h-.667l-4.268,4.3h1.2v9.9l-1.334,1.7h1.467v18.5H491.623v4.9h4v2.3h-6.8l-2.4-2.3H458.948v5.3h-5.6v-6h-2.4V73.3h-.267V66.7h2.4v-.6h-2.4V62.9l.4-.3-.4-.5-.267-.5.133-.5-.133-.4V59l.4-.5v-1l-1.334-2.9h.133v-.4h-.133l.133-.1-.267-.4c.133-.1.267-.2.267-.4s-.267-.4-.533-.4-.533.2-.533.4.133.3.267.4l-.267.4.133.1h-.133v.4h.133l-1.067,2.5s-2.934-.4-2.8-2.9h-.667v-.3h.267l-.267-.3-.133-1.2h.4l-.533-.6-.4-.9-.533-1.5V49h-.133l.133-.1-.267-.4v-.1c.133-.1.267-.2.267-.3,0-.2-.267-.4-.533-.4s-.533.2-.533.4a.273.273,0,0,0,.267.3v.1l-.267.3v.5l-.133.2-4.535-7.1h.267V42h.133l-.267-.2-.133-.2v-1l.133-.1-.267-.1v-.2h-.133V40l-.133-.1a.25.25,0,0,0,0-.4,4.174,4.174,0,0,1-.8-.6c.133,0,.133-.1.133-.2s-.133-.2-.267-.2v-.2l-.533-.4s0-.1-.133-.1h-.133l-.133-.3s.133,0,.133-.1c0,0,0-.1-.133-.1h-.133c.533-.2,1.067-.7,1.067-1.2a1.36,1.36,0,0,0-.533-1,5.041,5.041,0,0,1-.667-3.1h.667l.4-.4.267-.4v-.6l-.133-.1.4-.4.267-.4.133-.5v-.5l-.533.3-.533.4v-.8l-.533.5-.667.5-.4.4-.4.4-.4-.4v.3l.133.2.133.2V31l.133.1.133.1V31l-.133.2-.133.2h-.4v.4l.133.1V32l.133.1v.8l-.133.5.267.3V34l.133.2.133.7a1.384,1.384,0,0,0-.934,1.2,1.352,1.352,0,0,0,1.067,1.2h-.133s-.133,0-.133.1,0,.1.133.1l-.133.3h-.133s-.133,0-.133.1l-.533.4v.2c-.133,0-.267.1-.267.2s.133.2.133.2c-.267.2-.4.5-.8.6-.267.1-.267.2,0,.4l-.4.1v.2h-.133v.2l-.267.1.133.1v1l-.133.2-.267.2h.133v.4h.267l-4.535,7.1-.133-.2v-.4l-.267-.3v-.1c.133-.1.267-.2.267-.3,0-.2-.267-.4-.533-.4s-.533.2-.533.4a.273.273,0,0,0,.267.3v.1l-.267.4.133.1h-.133v.4l-.533,1.5-.4.9-.533.6h.4l-.133,1.2-.267.3h.267v.3h-.667c.267,2.6-2.8,2.9-2.8,2.9l-1.067-2.5h.133v-.4h-.133l.133-.1-.267-.4c.133-.1.267-.2.267-.4s-.267-.4-.533-.4-.533.2-.533.4.133.3.267.4l-.267.4.133.1H418.8v.4h.133L417.6,57.6v1l.4.5v1.8l-.133.4.133.5-.267.5-.4.5.4.3v3.2h-2.4v.6h2.4v51.2h-6.8v3H379.461V123h-5.6v1.9h-6.4V103.4l-2-7.2-2,6h-4l-2-5.7-2,6.4v17.4h-8.4v3h-4.8V101.8h-8.135v-1.6l.8-.1-.8-.9h-1.867V101h-.8V99.2h-1.734V101h-.267V96.5h-14.27v6.4h-12.27v4.2h-1.334v-2.7h-4v2.7h-1.334v-2.7h.533v-.9h-1.2V98h.667l.533-.6-1.2-1V94.6h.667l-.667-.9V92l.667-.3-1.067-1.1h-.533V88.8h.533l-.934-.9-3.468-8.4V78.4h.267V78h.267v-.3h-.267v-.2h-.267v-.1h-.133v-.2H290.5V77h.133v-.5h.533v-.2H290.5V74.7h1.467v-.2H290.5V72.8h.533v-.2H290.5V69.7h-.267v2.9h-.4v.2h.4v1.7H288.77v.2h1.467v1.6h-.667v.2h.533V77h.267v.2H290.1v.2h-.267v.1h-.267v.2h-.4V78h.4v.2h.267v.9L286.5,87.9l-.934.6.667.4v1.6H285.7l-.8,1.3.667.3v1.3l-.667,1.2h.667V96h-3.2v2.6h-1.6V96h-4.8v2.6h-1.6V96H269.7v2.6h-1.6V96h-4.534v2.6H262.1V96h-4.4V85.1h.934v-.8H257.7v-7h.934v-.8H257.7V73.4h2V72.2h-1.334V69H259.7V67.6h-1.334V65.8h.4v-.6h-.4v-.9c.533-.1.934-.4.934-.9s-.533-.9-1.2-.9V62h.267v-.4H258.1v-.5c.533-.1.934-.3.934-.4,0-.2-.4-.3-1.067-.5l-2.8-8.9h.8V51h-.8l-.133-.3h.934v-.3h-1.067v-.8h.667v-.5h-1.467v-.2h.4l-.667-.8V47h0V45.5H255.3v-.2h-1.467V45H255.3v-.1h-1.467V42h-.267v2.9h-1.6V45h1.6v.4h-1.6v.2h1.6V47h-.533v.3h.533v1l-.667.9h.4v.2h-.8v.5h.667v.8h-1.067V51h.934l-.133.3h-.934v.3h.8l-2.667,8.9c-.533.1-.934.3-.934.4,0,.2.267.3.8.4v.5h-.4V62h.4v.6c-.667,0-1.2.4-1.2.9a.817.817,0,0,0,.667.8v1h-.4v.6h.4v2H246.76v2.2h-1.6V68h-4.535v2.2h-1.467V68h-4.134v2.2h-1.334V68h-4.535v2.2h-1.6V68h-2.667V66h.4v-.6h-.4v-1a.908.908,0,0,0,.667-.8c0-.5-.533-.9-1.2-.9V62h.4v-.4h-.4v-.5c.533-.1.8-.3.8-.4,0-.2-.4-.3-.934-.4l-2.667-8.9h.8v-.3h-.934l-.133-.3h.934v-.3h-1.067v-.8h.667v-.5h-.8V49h.4l-.667-.9v-1h.533V47h-.533V45.8c.133,0,.267-.1.267-.2l.133-.1h1.067v-.2h-1.067c.133-.1.133-.2.133-.4h.934v-.1h-.8a.822.822,0,0,0-.4-.7l-.267-.2v-2h-.267v1.9h-.4a1.206,1.206,0,0,0-.934.3,1,1,0,0,0,0,1.6,1.715,1.715,0,0,0,.934.3h.4v1h-.533v.3h.533v1.1l-.667.8h.4v.2h-.8v.5h.667v.8h-1.067V51h.934l-.133.3h-.8v.3h.8l-2.8,8.9c-.667.1-1.067.3-1.067.5s.4.3.934.4v.5h-.267V62h.267v.6c-.667,0-1.2.4-1.2.9a1.058,1.058,0,0,0,.934.9v.9h-.4v.6h.4v1.8h-1.334v1.4h1.334v3.2h-1.334v1.2h2v3.1h-.934v.8h.934v7h-.934v.8h.934V96h-4.4v2.6h-1.467V96h-4.535v2.6h-1.6V96h-4.668v2.6h-1.6V96h-4.8v2.6h-1.6V96h-3.2V94.6h.667l-.667-1.2V92l.667-.3-.8-1.3h-.533V88.8l.667-.4-.934-.6L185.144,79v-.9h.267V78h.4v-.3h-.4v-.2h-.267v-.1h-.267v-.2h-.267V77h.267v-.5h.533v-.2h-.667V74.7h1.467v-.2h-1.467V72.8h.4v-.2h-.4V69.7h-.267v2.9h-.533v.2h.533v1.7H183.01v.2h1.467v1.6H183.41v.2h.533V77h.133v.2h-.133v.2h-.133v.1h-.4v.2h-.267V78h.267v.2h.267v1.1l-3.468,8.4-.934.9h.533v1.8h-.533l-1.067,1.1.667.3v1.7l-.667.9h.667v1.8l-1.2,1,.533.6h.667v5.5h-1.2v.9h.533v2.7h-1.334v-2.7h-4v2.7H171.14v-2.7h-3.734v2.7h-1.334v-2.7H161.8v2.7h-1.467v-2.7h-4v2.7H155v-2.7h-4.535v2.7H149.4v-2.4h-2.134V100l.667-.3-.667-1h-1.6v1.9h-.934V98.8H143v1.8h-1.067V98.8h-1.867l-.8.9.8.1v4.6H139v.6h1.467v20.5H137V109.2H115.525v4.5h-15.2v15.5H74.848V133H63.378v3h-4v-7.2H49.108V133H42.44v8H-110v59H1810.5V141.4ZM220.886,44.7v0ZM220.886,45Zm-.267.3h-.8s-.133,0-.133-.1a.314.314,0,0,1-.133-.3h1.067v.4Zm0-.5h-1.067a.707.707,0,0,1,.267-.4.787.787,0,0,1,.533-.2.6.6,0,0,1,.4.1v.5ZM424.673,62.5h-3.6V59.3a2.624,2.624,0,0,1,3.6-.1Zm22.939,0h-3.6V59.2c.4-.8,2.667-1.1,3.6.1Zm289.409,65.1H715.682V105h21.339Zm33.342.8h-8.135V108.3c0-2.3.934-3.3,4-5.7,3.067,2.4,4,3.4,4,5.7v20.1Zm0-49.7h-8.135V65c0-2.3.934-3.3,4-5.7,3.067,2.4,4,3.4,4,5.7V78.7Zm74.953-10c0-2,1.467-2.6,5.868-4.5,4.535,1.9,5.868,2.6,5.868,4.5V81.4H845.315V68.7Zm-27.074,0c0-2,1.467-2.6,5.868-4.5,4.535,1.9,5.868,2.6,5.868,4.5V81.4H818.242V68.7Zm-26.94,0c0-2,1.467-2.6,5.868-4.5,4.535,1.9,5.868,2.6,5.868,4.5V81.4H791.3V68.7ZM831.979,139c-.133.3-.133.5-.267.6s0,.1,0,.3v.8c0,.3-.133.5-.133.7h-1.067v-.2a.314.314,0,0,0-.133-.3c0-.1-.133-.2-.133-.4-.133-.2,0-.8,0-1.4a3.436,3.436,0,0,1,.267-1.3c.133-.3,0-.7,0-1V136a4.237,4.237,0,0,1,.4-1.2,1.056,1.056,0,0,0,0-.9c0-.4-.133-.7-.133-1.5a4.8,4.8,0,0,1,.267-1.6,2.944,2.944,0,0,0,.133-.9c0-.2,0-.2.133-.3v0c0,.1.133,0,.133,0v.2c0,.1.133.6.267,1.2,0,.6.133,1.2.133,1.6s-.133,1.1-.133,1.4c0,.4.267,1,.267,1.3.133.3,0,.5,0,.9a6.493,6.493,0,0,0,.133,1.6,4,4,0,0,0-.133,1.2Zm25.207-34.1v36.5H833.179c-.133-.1-.133-.2-.133-.4a5.726,5.726,0,0,0-.133-.6v-1.1a4.016,4.016,0,0,1,.267-1.1,9.856,9.856,0,0,0,.534-1.6,4.7,4.7,0,0,0,0-1.4v-1.4a9.5,9.5,0,0,1,.4-1.7,3.074,3.074,0,0,1,.534-1.1,2.8,2.8,0,0,0,.267-1,1.047,1.047,0,0,0,.133-.5v1c0,.1.133.1.133.1.133,0,.267-.2.267-.4v.5c0,.2-.267.3-.267.3,0,.1.133.1.133.1.133,0,.133,0,.267-.1.133,0,.133,0,.267-.1s.133-.1.267-.1.133-.1.267-.1a.488.488,0,0,0,.267-.1c.133-.1.133-.1.133-.2s.133-.3.133-.4a1.361,1.361,0,0,0-.133-.6c0-.3-.133-.5-.133-.7a2.023,2.023,0,0,0-.133-.7,3.116,3.116,0,0,1-.133-1.1v-.8h.133c.133,0,.133,0,0-.1,0-.1,0-.1.133-.2,0-.1-.133-.2-.133-.3s-.133-.1-.133-.1c-.133,0,0,0,0-.1s0-.1-.133-.2,0-.1,0-.2-.133-.3-.133-.4a5.68,5.68,0,0,1-.534-1.3,9.524,9.524,0,0,1-.4-1.4,8.329,8.329,0,0,0-.4-1.2c-.133-.2-.133-.5-.4-.6a1.715,1.715,0,0,0-.934-.3c-.133,0-.133-.1-.267-.1,0-.1,0-.2-.133-.2a.94.94,0,0,0,.4.3c-.133,0-.267-.3-.4-.7a4.237,4.237,0,0,1-.4-1.2,4.051,4.051,0,0,0-.8-1.3,2.261,2.261,0,0,0-2.134-.6c-.534,0-.667.2-1.067.5a6.534,6.534,0,0,0-.8,1.6.991.991,0,0,0-.133.6,2.591,2.591,0,0,1-.133,1v.2a.6.6,0,0,0,.4-.1v.2c0,.1-.133.1-.267.1a3.1,3.1,0,0,1-1.067.3c-.133,0-.133.1-.267.2a2.59,2.59,0,0,0-.267.7,1.5,1.5,0,0,0,0,.8v.5a2.448,2.448,0,0,1-.133.7,2.856,2.856,0,0,0-.133.8v.9c0,.1-.133.1-.133.2v.2c0,.1-.133.2-.133.4s-.133.3-.133.4-.133.2-.133.3,0,.2-.133.2v.2c0,.1.267.1.267.1a2.353,2.353,0,0,1-.133.9c0,.2-.267.8-.267,1,0,.1-.133.3-.133.5s-.133.4-.133.6v.5c0,.1.133.1.133.2v.2c0,.1.133.2.133.3.133.1.133.2.267.3a.759.759,0,0,0,.4.2c.133.1.267,0,.133-.1,0-.1-.133-.2-.133-.2.133,0,.4.1.4,0s-.267-.2-.267-.2v-.9c0-.1,0-.4-.133-.5a.608.608,0,0,1-.133-.4,1.5,1.5,0,0,1,.133-.7,4.194,4.194,0,0,1,.667-1l.267-.6h.267c.267,0,.133,0,.133-.1a.314.314,0,0,1,.133-.3c0-.1,0-.1.133-.2s0-.2.133-.4c.133-.1.133.1.133.2v.3c0,.1-.133.1-.133.2-.133.1.133.2.133.3s-.133.1-.267.2,0,.1.133.2,0,.1,0,.2,0,.1-.133.2v.9c0,.1,0,.1-.133.3s0,.1,0,.2,0,.4-.133.5v.2c0,.2.133.1.133.1v.5c0,.4.4,1.3.4,1.7.133.4.267,1.1.4,1.5a2.151,2.151,0,0,1,.133.8v.8c0,.3-.133.8-.133,1.2,0,.5.133,1.2.133,1.7.133.4.133,1.1.267,1.6a8.8,8.8,0,0,1,.267,1.4c0,.2,0,.4-.133.5s0,.1,0,.3h-11.47v-.1a.28.28,0,0,1-.133-.2v-.2c0-.1.267-.8.4-1.2a1.408,1.408,0,0,0,0-.8h.267v-.2c0-.1.133-.5.133-.7,0-.3-.133-.3,0-.5s.267-.6.4-.8l.133-.2s-.133,0-.133-.1v-.2c0-.1.133-.1.133-.4s-.133-.4,0-.6a1.5,1.5,0,0,0-.133-.7c-.133-.3-.267-.4-.267-.5s0-.1-.133-.2v-.3l.133.2h.133a1.365,1.365,0,0,0,.133.5,4.169,4.169,0,0,1,.534,1.1v.6s-.133,0-.133.1.133.1.133.1v.3c0,.1.133.1.267.2.133,0,.267.1.4.1h.133l.534.4a.5.5,0,0,0,.4.2c.267,0,.4-.2.267-.4a.488.488,0,0,0-.267-.1v-.1c0-.1-.667-.3-.667-.3a.794.794,0,0,0-.133-.4,1.3,1.3,0,0,0-.267-.3,6.516,6.516,0,0,0-.133-1.5c-.133-.3-.267-.7-.267-.7s-.133-.3,0-.4a.314.314,0,0,0,.133-.3c0-.1-.133-.2-.267-.4-.133-.1-.4-.8-.8-1a1.578,1.578,0,0,0-.8-.5l-.534-.2-.133-.1.267-.2a.28.28,0,0,0,.133-.2s.133,0,.133-.1.133-.2.133-.2l.534-.4c.133-.1.4-.4.133-.5-.267-.2-.4-.1-.534-.3a1.1,1.1,0,0,0-.534-.9,4.52,4.52,0,0,0-2-.1,1.417,1.417,0,0,0-.8.6c0,.2,0,.6-.133.6,0,.1-.534.4-.534.6a1.3,1.3,0,0,0,.267.3l.267.1a1.472,1.472,0,0,0,.267.3.228.228,0,0,0,.267,0,.854.854,0,0,1,.133.3c0,.1-.133.2-.133.2s-.4.2-.667.3c-.133.1-1.2.5-1.334.6s-.667.4-.8.5a8.774,8.774,0,0,1-.8.4v.1s-.934.8-1.2,1c-.133.2-.534.7-.534.7a5.5,5.5,0,0,0-.534.3.707.707,0,0,0-.267.4c0,.1.133.2.267.2h.267l.133-.1h.133v.1c.133,0,.133,0,.267-.1s.267-.2.267-.4,0-.2.133-.3c0-.1.267-.3.534-.4.133-.1.667-.3.8-.5a1.09,1.09,0,0,1,.534-.3l.133.1.133-.1a1.741,1.741,0,0,1,.4-.2l.534-.2v1.4c0,.3-.133.6-.133.8a3.61,3.61,0,0,1,0,1.2,1.362,1.362,0,0,0-.133.6c.133.1.133.1.133.2s0,.2.133.2h.133s.267.7.133,1-.534.6-.4.9c.133.2.133.5.267.5s0,.1,0,.2.133.1.133.1l-.133.2a6.452,6.452,0,0,0-.133.8.742.742,0,0,0,.667.7.532.532,0,0,0,.667-.3,1.2,1.2,0,0,0,.267-.6V141c0-.1.133-.2.133-.3s.267-.1.267-.2c.133-.1.133-.2.267-.3l.133-.1.133.1h.133a.6.6,0,0,1,0,.5c-.133.2,0,.7,0,.9-.133.3-.133.6-.267.6a.387.387,0,0,0-.133.3H790.368V106l2.8-1.6v-1.6h-2.8c0-1.8.267-3.6,4.134-4.8,9.469-3.1,24.54-4.6,28.941-4.6s19.472,1.5,28.941,4.6c3.868,1.3,4.134,3,4.134,4.8h-2.8v1.6l3.468.5Zm28.807,23.5h-8.135V108.3c0-2.3.934-3.3,4-5.7,3.067,2.4,4,3.4,4,5.7v20.1Zm0-49.7h-8.135V65c0-2.3.934-3.3,4-5.7,3.067,2.4,4,3.4,4,5.7V78.7ZM932.8,127.6H911.466V105H932.8Zm173.645-16.1h-33.075v-4.7h33.075Zm.667-9.7h-40.01v-.2c14.137-.9,26.807-4.2,36.276-9a57.571,57.571,0,0,0,5.335-3.1l-1.6,12.3Zm1.867-13.8a46,46,0,0,1-6.135,3.9c-8.135,4.4-18.538,7.6-30.541,9a69.427,69.427,0,0,0,24.806-8c6.135-3.5,10.8-7.8,13.337-12.7Zm8.269-15.6h1.334v1.8h-1.334Zm-3.868,0h.8v1.8h-.8Zm3.2,6.4a1.039,1.039,0,0,1,.8.1,26.159,26.159,0,0,1-3.734,4.9c-.133.1-.133.2-.267.3C1114.185,80.9,1115.386,79,1116.586,78.8Zm2.267,14.2-.267,8.8h-6.668l.133-2.8v-.4l.534-7.1a5.92,5.92,0,0,1,4-.6,3.488,3.488,0,0,1,2,1V92Zm0-4.7v.8l-6.268.1h0a19.607,19.607,0,0,1,.4-2.9,30.341,30.341,0,0,0,5.468-6,22.243,22.243,0,0,1,.667,6.2c-.133.8-.267,1.6-.267,1.8Zm131.367-15.9h1.334v1.8h-1.334Zm-.8,6.4a19.817,19.817,0,0,1-2.134,2.3C1247.954,79.7,1248.754,78.9,1249.421,78.8Zm-2.934-6.4h.8v1.8h-.8Zm-18.271,18.1a40.935,40.935,0,0,0,13.07-10.3,24.726,24.726,0,0,0,3.334-5.5v.8l-2,9.7a61.559,61.559,0,0,1-14.937,7.7,103.043,103.043,0,0,1-17.871,4.4,83.483,83.483,0,0,0,18.4-6.8ZM1124.588,72.4h5.468v1.8h-5.468Zm4.134,18.1c0-.4-.533-5.5,0-5.5.667,0,1.734,5,1.734,5.4l.667,4.9-2,.2Zm.8,11.3-.4-3.6c0-.4.133-1.2.667-1.2a1.576,1.576,0,0,1,1.2,1.2l.4,3.6Zm2.934-26.6-.133-1.4a22.326,22.326,0,0,0,3.2,5.2c4.8,6,12.8,11.1,22.672,14.7a96.1,96.1,0,0,0,23.606,5.1c-14.937-.5-28.541-3.9-38.41-9.2a44.536,44.536,0,0,1-9.2-6.3l-1.734-8.1Zm107.095,49.1h-6v-1h-5.735v-1.8h-32.408v-3h-9.869v-6.3h-27.874v3.3h-6.135v5.9h-5.735v-5.2h-7.869v-9.5h101.76v17.6Zm12.27-31.3-.267,8.3-1.2-3.8-1.6,4.3h-3.734l.533-8,.133-2.1a5.251,5.251,0,0,1,2.667-.7,4.747,4.747,0,0,1,3.468,1.2V93Zm.133-4.7a3.117,3.117,0,0,1-.133,1.1l-6.268-.2h0a21.406,21.406,0,0,1,.667-4.4,39.543,39.543,0,0,1-4.268,3.2l-.133.6-1.734,13.3h-102.96l-1.467-12.5-.934-4.2a55.931,55.931,0,0,0,16.938,9.2,100.271,100.271,0,0,0,33.742,5.5c3.734,0,7.469-.2,10.936-.5,16-.4,30.408-4.1,40.944-9.7a40.8,40.8,0,0,0,13.47-10.7,21.477,21.477,0,0,0,4.668-10.2h.133a21.8,21.8,0,0,1-4.8,11.1c1.067,1.7,1.467,4.8,1.2,8.4Zm5.6-15.9h5.468v1.8h-5.468Zm4.134,18.1c0-.4-.534-5.5,0-5.5.667,0,1.734,5,1.734,5.4l.667,4.9-2,.2Zm.934,11.3-.4-3.6c0-.4.133-1.2.667-1.2a1.576,1.576,0,0,1,1.2,1.2l.4,3.6Zm16.938-4.3v4.3h-9.336l-1.6-12.4-1.334-5.6a28.452,28.452,0,0,0,7.6,7.1,60.081,60.081,0,0,0,13.6,6.6Zm14.8,1.7a108.079,108.079,0,0,0,13.87,2.6h-13.87V99.2Zm32.542,23.3h-5.468l-4.134,2.6h-10.269V106.7h19.872Z" transform="translate(110 -9.9)" fill="#b8874d"/>
</svg>
