<?xml version="1.0" encoding="utf-8"?>
<!-- Generator: Adobe Illustrator 24.1.1, SVG Export Plug-In . SVG Version: 6.00 Build 0)  -->
<svg version="1.1" id="圖層_1" xmlns="http://www.w3.org/2000/svg" xmlns:xlink="http://www.w3.org/1999/xlink" x="0px" y="0px"
	 viewBox="0 0 1870.8 190.1" style="enable-background:new 0 0 1870.8 190.1;" xml:space="preserve">
<style type="text/css">
	.st0{fill:#B8874D;}
</style>
<g>
	<path class="st0" d="M1870.8,131.5H1686v-7.8h-6.9v-4.1h-10.7v7h-4.1v-3h-11.9v-3.7h-26.3v-15.1h-15.6v-4.4h-22.1v15.9h-12.8v-0.1
		h-0.9V96.4l0.9-0.5v-0.5h-0.9V79.8h-0.3v-1.3h0.5v-0.4h-0.5v-1.4h-0.7v1.4h-0.5v0.5h0.5v1.3h-0.4v2.2h-1.1v3.4h-0.5l-0.5,1.1h-1.1
		v2l-0.3,0.5h-1.9v-2.6h-3.5v2.6h-2.1v-2.6h-3.5v2.6h-2.1v-2.6h-3.5v2.6h-2.1v-2.6h-3.5v2.6h-1.6l-0.5-1v-1.6h-0.8l-0.5-1.1h-0.5
		v-3.3h-1.1v-2.3h-0.4v-1.3h0.5v-0.4h-0.5v-1.4h-0.7v1.4h-0.5v0.5h0.5v1.3h-0.3v9.2h-0.3v6.3h-1.3v0.5l0.9,0.5h0.4v18.1h-8.7v2.9
		h-5.7v2.6h-10.3v-8.5h-26.1V94.7l-1.1-0.8v-4.2h0.4v-0.5h-0.4v-1.7l-0.3-0.1v-3.2h0.4v-0.5h-0.4v-1.9l-0.4,0.6l-0.1-0.3v-0.4h-0.1
		l-0.1-0.4V81h-0.1l-0.1-0.5h0.1v-0.4h-0.3l-0.3-0.6h0.1v-0.3h-0.3l-0.3-0.6v-0.2h0.4v-0.3h-0.4v-0.2h0.3v-0.2h-0.3v-0.5h-0.3v0.5
		h-0.3v0.2h0.3v0.2h-0.4v0.4h0.4v0.1l-0.3,0.7h-0.3v0.3h0.1l-0.3,0.6h-0.3v0.4h0.1l-0.1,0.5h-0.1v0.3l-0.1,0.4h-0.1v0.3l-0.1,0.5
		l-0.4-0.6v1.9h-0.3v0.5h0.4v2l-1.5-0.5v-0.6h0.3v-0.2h-0.3v-0.5h-0.3v0.5h-0.3v0.2h0.3v0.6l-2.4,0.6v-1.7l0.7-0.4l-0.9-0.3l-0.9-2
		v-3h0.3v-0.5h-0.3v-4.9l0.9-0.4l-0.7-0.5l-0.5-2.4l-0.3-0.6l-0.9-3.5h-0.1v-3.5h0.4v-0.4h-0.4v-0.3l-0.1-0.3v-1.9h-0.3v0.9
		l-1.6-4.7v-0.5h0.3v-0.3h-0.3v-0.7h-0.4v0.7h-0.4v0.3h0.4v0.3l-1.5,4.7v-0.7h-0.4v1.8l-0.1,0.4v0.3h-0.5v0.4h0.5V66h-0.3l-0.8-0.7
		l-6.8-58.5c0.1-0.1,0.1-0.2,0.1-0.3c0-0.2-0.3-0.4-0.7-0.4V4.7h-0.3V2.3l1.1-0.3V1.7l-1.1,0.3V0h-0.4v2.1l-1.1,0.3v0.3l1.1-0.3v2.3
		h-0.3v1.4c-0.4,0.1-0.7,0.2-0.7,0.4c0,0.1,0.1,0.2,0.3,0.3l-7.2,58.3l-1.2,1h-0.4v-3.2h0.4v-0.4h-0.3v-2.6h-0.4v1.2l-1.5-5v-0.4
		h0.4v-0.3h-0.4v-0.7h-0.4v0.7h-0.4v0.3h0.4v0.4l-1.6,4.5v-0.8h-0.4v2l-0.3,0.6h-0.3v0.4h0.4V66h-0.3v-0.8h-0.3V66h-0.3v1.2
		l-0.9,2.6l-1.1,2.8h-0.4V73h0.5v0.3h-0.4v0.4h0.4v9.8h-1.2v0.3h0.5v0.3h-0.5v0.2h0.5v4.9h-10.8v5.6l-18.1-3
		c-4.9-0.6-9.8-1.5-14.5-2.9v-1.4h-4.5c-5-1.7-9.8-4.1-14.1-7.2c-3.1-2.1-5.6-4.8-7.6-8c-0.9-1.4-1.6-3-2-4.6l-0.5-2.6h-0.1V61
		c0.2-0.6,0.7-1.1,1.3-1.3h0.7v-0.6l-12.3-2.3l-12.4,2.5v0.8h0.3c0.5,0.1,1,0.4,1.3,0.8c-0.7,3.2-2.2,6.3-4.3,8.9
		c-4.4,5.6-12,10.5-21.5,13.9c-7.1,2.5-14.4,4.1-21.9,4.8c-1.2,0-2.4,0.1-3.6,0.1c-16.9,0-32.3-3.7-43.5-9.6c-5-2.5-9.4-6-13.1-10.3
		c-1.9-2.3-3.3-5-4.1-7.9c0.3-0.3,0.7-0.6,1.1-0.7h0.7v-0.6l-12.3-2.3l-12.4,2.5v0.4h0.3c0.8,0.1,1.5,0.7,1.5,1.1h-0.1v0.4
		c0,4.7-2,9.1-5.3,13.1c-2.7,3.1-5.8,5.7-9.3,7.7c-7.7,4.7-18,7.9-29.6,9.1v3.3h-1.5v-3.9h-9.5v3.9h-8.3v13.3h-5.3V89.6h-7.8v-2
		h-8.3v3.7h-3.7v-4.1h-7.7v-3.7h-8.3v4.1h-1.9l-4.8-15.6l-8,26.3h-5.9v9.8H1074v7.7h-4.4v15.8h-12.7V79.2h-7.3v3.6h-6.4v-3.6h-8v3.6
		h-6.7v-3.6h-7.7v3.6h-6.7v-3.6h-6.7V33.4l2.7-1.6V20.9h-5.9v3.7h-6.8v-3.7h-10.5v3.7H980v-3.7h-5.9v10.9l2.7,1.6v5.4h-7.2v3.8h-6.4
		v-3.8h-9.3v3.8h-6.3v-3.8h-9.3v3.8h-7.7v-3.8h-9.3v3.8h-6.3v-3.8h-9.3v3.8h-6.7v-3.8h-7.2v-5.4l2.7-1.6V20.9h-5.9v3.7h-6.9v-3.7
		h-10.3v3.7h-6.8v-3.7h-5.9v10.9l2.7,1.6v45.8h-6.7v3.6H848v-3.6h-7.7v3.6h-6.7v-3.6h-8v3.6h-6.7v-3.6h-7.3v52.4h-12.8v-9.1h-1.2
		l-1.7-1.7v-0.7h0.3v-0.3h-0.3v-0.4h-1.5L793,118l-1.3,1.4h-1.5v0.4h-0.3v0.3h0.3v0.7l-1.7,1.7h-4l-1.7-1.7v-0.7h0.3v-0.3h-0.3v-0.4
		h-1.2l-1.3-1.4l-0.4,0.4v-7.1H779v-0.5l1.2-3.1l-1.2-3.1v-7.9h1.5v-1.3H779v-1h-3.9l-3.5-9.4l-3.5,9.4h-1.3v-3.8h-1.1l-0.7-0.6
		l-2.1-9.4l-1.3,6.2L744.5,71l-17.2,15.8l-1.3-6.2l-2.1,9.4l-0.7,0.6h-1.1v3.8h-1.3l-3.5-9.4l-3.5,9.4h-3.9v1h-1.5v1.3h1.5v0.7h-3.2
		v-11h-3.2v-4.2h-8v3.9h-7.6v4.2h-3.6v-3.8h-8v2.1h-7.6v19.5h-5.2V93.9H659V82.3h1.5l-1.4-1.7v-9.9h1.2l-4.3-4.3h-0.7v-0.6h0.7v-0.6
		h-0.7v-9.7h0.7v-0.6h-0.7v-3.3h0.5v-3.9h-0.3v-1.3h0.4v-0.3h-0.5V46l-0.8-1.7h-0.3v-1.1h0.9v-0.3h-0.9v-0.7H654v0.7h-0.5v0.3h0.9
		v1.1h-0.3l-0.8,1.7v0.1h-0.5v0.3h0.4v1.3H653V50h-2.3v1.2h-1.3V50h-2.7v1.2h-1.3V50h-2.7v1.2h-1.3V50h-2.7v1.2h-1.3V50h-2.7v1.2
		h-1.3V50h-2.7v1.2h-1.3V50h-2.7v1.2h-1.3V50h-2.5v-2.3h-0.3v-1.3h0.4v-0.3h-0.5V46l-0.8-1.7h-0.3v-1.1h0.9v-0.3h-0.9v-0.7H621v0.7
		h-0.8v0.3h0.9v1.1h-0.3L620,46v0.1h-0.5v0.3h0.4v1.3h-0.3v3.9h0.5v3.3h-0.7v0.6h0.7v9.7h-0.7v0.6h0.7v0.6h-0.7l-4.3,4.3h1.2v9.9
		l-1.3,1.7h1.5v18.5h-14.9v4.9h4v2.3h-6.8l-2.4-2.3h-27.5v5.3h-5.6v-6h-2.4V63.4h-0.3v-6.6h2.4v-0.6h-2.4V53l0.4-0.3l-0.4-0.5
		l-0.3-0.5l0.1-0.5l-0.1-0.4v-1.7l0.4-0.5v-1l-1.3-2.9h0.1v-0.4h-0.1l0.1-0.1l-0.3-0.4c0.1-0.1,0.3-0.2,0.3-0.4s-0.3-0.4-0.5-0.4
		s-0.5,0.2-0.5,0.4s0.1,0.3,0.3,0.4l-0.3,0.4l0.1,0.1h-0.1v0.4h0.1l-1.1,2.5c0,0-2.9-0.4-2.8-2.9h-0.7V44h0.3l-0.3-0.3l-0.1-1.2h0.4
		l-0.5-0.6l-0.4-0.9l-0.5-1.5v-0.4h-0.1l0.1-0.1l-0.3-0.4v-0.1c0.1-0.1,0.3-0.2,0.3-0.3c0-0.2-0.3-0.4-0.5-0.4s-0.5,0.2-0.5,0.4
		c0,0.2,0.1,0.3,0.2,0.3c0,0,0,0,0,0v0.1l-0.3,0.3v0.5l-0.1,0.2l-4.5-7.1h0.3v-0.4h0.1l-0.3-0.2l-0.1-0.2v-1l0.1-0.1l-0.3-0.1v-0.2
		h-0.1v-0.2l-0.1-0.1c0.1-0.1,0.1-0.2,0-0.3c0,0,0,0,0,0c-0.3-0.2-0.6-0.4-0.8-0.6c0.1,0,0.1-0.1,0.1-0.2c0-0.1-0.1-0.2-0.3-0.2
		v-0.2l-0.5-0.4c0,0,0-0.1-0.1-0.1h-0.1l-0.1-0.3c0,0,0.1,0,0.1-0.1c0,0,0-0.1-0.1-0.1h-0.1c0.5-0.2,1.1-0.7,1.1-1.2
		c0-0.4-0.2-0.8-0.5-1c-0.5-0.9-0.8-2-0.7-3.1h0.7l0.4-0.4l0.3-0.4v-0.6l-0.1-0.1l0.4-0.4l0.3-0.4l0.1-0.5v-0.5l-0.5,0.3l-0.5,0.4
		v-0.8l-0.5,0.5l-0.7,0.5l-0.4,0.4l-0.4,0.4l-0.4-0.4v0.3l0.1,0.2l0.1,0.2v0.3l0.1,0.1l0,0l0,0.1l-0.1,0.2h-0.4v0.4l0.1,0.1v0.1
		l0.1,0.1V23l-0.1,0.5l0.3,0.3v0.3l0.1,0.2l0.1,0.7c-0.5,0.2-0.9,0.6-0.9,1.2c0.1,0.6,0.5,1.1,1.1,1.2h-0.1c0,0-0.1,0-0.1,0.1
		c0,0.1,0,0.1,0.1,0.1l-0.1,0.3h-0.1c0,0-0.1,0-0.1,0.1l-0.5,0.4v0.2c-0.1,0-0.3,0.1-0.3,0.2c0,0.1,0.1,0.2,0.1,0.2
		c-0.3,0.2-0.4,0.5-0.8,0.6c-0.3,0.1-0.3,0.2,0,0.4l-0.4,0.1v0.2h-0.1v0.2l-0.3,0.1l0.1,0.1v1l-0.1,0.2l-0.3,0.2h0.1v0.4h0.3
		l-4.5,7.1l-0.1-0.2V39l-0.3-0.3v-0.1c0.1-0.1,0.3-0.2,0.3-0.3c0-0.2-0.3-0.4-0.5-0.4s-0.5,0.2-0.5,0.4c0,0.2,0.1,0.3,0.2,0.3
		c0,0,0,0,0,0v0.1l-0.3,0.4l0.1,0.1h-0.1v0.4l-0.5,1.5l-0.4,0.9l-0.5,0.6h0.4l-0.1,1.2l-0.3,0.3h0.3v0.3h-0.7
		c0.3,2.6-2.8,2.9-2.8,2.9l-1.1-2.5h0.1v-0.4h-0.1l0.1-0.1l-0.3-0.4c0.1-0.1,0.3-0.2,0.3-0.4c0-0.2-0.3-0.4-0.5-0.4
		s-0.5,0.2-0.5,0.4c0,0.2,0.1,0.3,0.3,0.4l-0.3,0.4l0.1,0.1h-0.1v0.4h0.1l-1.3,2.9v1l0.4,0.5V51l-0.1,0.4l0.1,0.5l-0.3,0.5l-0.4,0.5
		l0.4,0.3v3.2h-2.4V57h2.4v51.2h-6.8v3h-31.5v1.9h-5.6v1.9h-6.4V93.5l-2-7.2l-2,6h-4l-2-5.7l-2,6.4v17.4h-8.4v3h-4.8V91.9h-8.1v-1.6
		l0.8-0.1l-0.8-0.9h-1.9v1.8h-0.8v-1.8h-1.7v1.8h-0.3v-4.5h-14.3V93h-12.3v4.2h-1.3v-2.7h-4v2.7h-1.3v-2.7h0.5v-0.9h-1.2v-5.5h0.7
		l0.5-0.6l-1.2-1v-1.8h0.7l-0.7-0.9v-1.7l0.7-0.3l-1.1-1.1h-0.5v-1.8h0.5l-0.9-0.9l-3.5-8.4v-1.1h0.3v-0.4h0.3v-0.3H401v-0.2h-0.3
		v-0.1h-0.1v-0.2h-0.1v-0.2h0.1v-0.5h0.5v-0.2h-0.7v-1.6h1.5v-0.2h-1.5v-1.7h0.5v-0.2h-0.5v-2.9h-0.3v2.9h-0.4v0.2h0.4v1.7h-1.5v0.2
		h1.5v1.6h-0.7v0.2h0.5v0.5h0.3v0.2h-0.3v0.2h-0.3v0.1h-0.3v0.2h-0.4v0.3h0.4v0.2h0.3v0.9l-3.3,8.8l-0.9,0.6l0.7,0.4v1.6h-0.5
		l-0.8,1.3l0.7,0.3v1.3l-0.7,1.2h0.7v1.4h-3.2v2.6h-1.6v-2.6H386v2.6h-1.6v-2.6h-4.7v2.6h-1.6v-2.6h-4.5v2.6h-1.5v-2.6h-4.4V75.2
		h0.9v-0.8h-0.9v-7h0.9v-0.8h-0.9v-3.1h2v-1.2h-1.3v-3.2h1.3v-1.4h-1.3v-1.8h0.4v-0.6h-0.4v-0.9c0.5-0.1,0.9-0.4,0.9-0.9
		s-0.5-0.9-1.2-0.9v-0.5h0.3v-0.4h-0.3v-0.5c0.5-0.1,0.9-0.3,0.9-0.4c0-0.2-0.4-0.3-1.1-0.5l-2.8-8.9h0.8v-0.3h-0.8l-0.1-0.3h0.9
		v-0.3h-1.1v-0.8h0.7v-0.5h-1.5V39h0.4l-0.7-0.8v-1.1v-1.5h1.5v-0.2h-1.5v-0.3h1.5V35h-1.5v-2.9h-0.3V35H362v0.1h1.6v0.4H362v0.2
		h1.6v1.4H363v0.3h0.5v1l-0.7,0.9h0.4v0.2h-0.8V40h0.7v0.8h-1.1v0.3h0.9l-0.1,0.3H362v0.3h0.8l-2.7,8.9c-0.5,0.1-0.9,0.3-0.9,0.4
		c0,0.2,0.3,0.3,0.8,0.4v0.5h-0.4v0.2h0.4v0.6c-0.7,0-1.2,0.4-1.2,0.9c0,0.4,0.3,0.7,0.7,0.8v1H359V56h0.4v2h-2.7v2.2h-1.6v-2.1
		h-4.5v2.2h-1.5v-2.2H345v2.2h-1.3v-2.2h-4.5v2.2h-1.6v-2.2h-2.7v-2h0.4v-0.6h-0.4v-1c0.4-0.1,0.6-0.4,0.7-0.8
		c0-0.5-0.5-0.9-1.2-0.9v-0.7h0.4v-0.4h-0.4v-0.5c0.5-0.1,0.8-0.3,0.8-0.4c0-0.2-0.4-0.3-0.9-0.4l-2.7-8.9h0.8v-0.3h-0.9l-0.1-0.3
		h0.9v-0.3h-1.1v-0.8h0.7v-0.5H331v-0.2h0.4l-0.7-0.9v-1h0.5v-0.1h-0.5v-1.2c0.1,0,0.3-0.1,0.3-0.2l0.1-0.1h1.1v-0.2h-1.1
		c0.1-0.1,0.1-0.2,0.1-0.4h0.9v-0.1h-0.8c0-0.3-0.2-0.6-0.4-0.7l-0.3-0.2v-2h-0.3v1.9h-0.4c-0.3,0-0.7,0.1-0.9,0.3
		c-0.4,0.3-0.5,1-0.2,1.4c0.1,0.1,0.1,0.1,0.2,0.2c0.3,0.2,0.6,0.3,0.9,0.3h0.4v1H330v0.3h0.5v1.1l-0.7,0.8h0.4v0.2h-0.8V40h0.7v0.8
		H329v0.3h0.9l-0.1,0.3H329v0.3h0.8l-2.8,8.9c-0.7,0.1-1.1,0.3-1.1,0.5s0.4,0.3,0.9,0.4V52h-0.3v0.1h0.3v0.6c-0.7,0-1.2,0.4-1.2,0.9
		c0.1,0.5,0.5,0.8,0.9,0.9v0.9h-0.4V56h0.4v1.8h-1.3v1.4h1.3v3.2h-1.3v1.2h2v3.1h-0.9v0.8h0.9v7h-0.9v0.8h0.9v10.8h-4.4v2.6h-1.5
		v-2.6h-4.5v2.6h-1.6v-2.6h-4.7v2.6H309v-2.6h-4.8v2.6h-1.6v-2.6h-3.2v-1.4h0.7l-0.7-1.2v-1.4l0.7-0.3l-0.8-1.3h-0.5v-1.6l0.7-0.4
		l-0.9-0.6l-3.3-8.8v-0.9h0.3v-0.1h0.4v-0.3h-0.4v-0.2h-0.3v-0.1h-0.3v-0.2h-0.3v-0.2h0.3v-0.5h0.5v-0.2h-0.7v-1.6h1.5v-0.2h-1.5
		v-1.7h0.4v-0.2h-0.4v-2.9h-0.3v2.9h-0.5v0.2h0.5v1.7H293v0.2h1.5v1.6h-1.1v0.2h0.5v0.5h0.1v0.2h-0.1v0.2h-0.1v0.1h-0.4v0.2h-0.3
		v0.3h0.3v0.2h0.3v1.1l-3.5,8.4l-0.9,0.9h0.5v1.8h-0.5l-1.1,1.1l0.7,0.3v1.7l-0.7,0.9h0.7v1.8l-1.2,1l0.5,0.6h0.7v5.5h-1.2v0.9h0.5
		V97h-1.3v-2.7h-4V97h-1.7v-2.7h-3.7V97h-1.3v-2.7h-4.3V97h-1.5v-2.7h-4V97H265v-2.7h-4.5V97h-1.1v-2.4h-2.1v-4.5l0.7-0.3l-0.7-1
		h-1.6v1.9h-0.9v-1.8H253v1.8h-1.1v-1.8h-1.9l-0.8,0.9l0.8,0.1v4.6H249v0.6h1.5v20.5H247V99.3h-21.5v4.5h-15.2v15.5h-25.5v3.8h-11.5
		v3h-4v-7.2h-10.3v4.2h-6.7v8H0v59h1870.8V131.5z M330.6,35.4L330.6,35.4h-0.8c0,0-0.1,0-0.1-0.1c-0.1-0.1-0.1-0.2-0.1-0.3h1.1V35.4
		z M330.8,34.9h-0.1h-1.1c0-0.2,0.1-0.3,0.3-0.4c0.1-0.1,0.3-0.2,0.5-0.2c0.1,0,0.3,0,0.4,0.1V34.9z M534.7,52.6h-3.6v-3.2
		c1-1,2.6-1,3.6-0.1V52.6z M557.6,52.6H554v-3.3c0.4-0.8,2.7-1.1,3.6,0.1V52.6z M847,117.7h-21.3V95.1H847V117.7z M872.2,55.1
		c0-2.3,0.9-3.3,4-5.7c3.1,2.4,4,3.4,4,5.7v13.7h-8V55.1z M872.2,98.4c0-2.3,0.9-3.3,4-5.7c3.1,2.4,4,3.4,4,5.7v20.1h-8V98.4z
		 M955.3,58.8L955.3,58.8c0-2,1.5-2.6,5.9-4.5c4.5,1.9,5.9,2.6,5.9,4.5v12.7h-11.7V58.8z M928.2,58.8c0-2,1.5-2.6,5.9-4.5
		c4.5,1.9,5.9,2.6,5.9,4.5v12.7h-11.7V58.8z M901.3,58.8L901.3,58.8c0-2,1.5-2.6,5.9-4.5c4.5,1.9,5.9,2.6,5.9,4.5v12.7h-11.7V58.8z
		 M942,129.1L942,129.1c-0.1,0.3-0.1,0.5-0.3,0.6c-0.1,0.1,0,0.1,0,0.3v0.8c0,0.3-0.1,0.5-0.1,0.7h-1.1v-0.2c0-0.1,0-0.2-0.1-0.3
		c0-0.1-0.1-0.2-0.1-0.4c-0.1-0.2,0-0.8,0-1.4c0-0.4,0.1-0.9,0.3-1.3c0.1-0.3,0-0.7,0-1v-0.8c0.1-0.4,0.2-0.8,0.4-1.2
		c0.1-0.3,0.1-0.6,0-0.9c0-0.4-0.1-0.7-0.1-1.5c0-0.5,0.1-1.1,0.3-1.6c0.1-0.3,0.1-0.6,0.1-0.9c0-0.2,0-0.2,0.1-0.3
		c0,0.1,0.1,0,0.1,0v0.2c0,0.1,0.1,0.6,0.3,1.2c0,0.6,0.1,1.2,0.1,1.6c0,0.4-0.1,1.1-0.1,1.4c0,0.4,0.3,1,0.3,1.3
		c0.1,0.3,0,0.5,0,0.9c0,0.5,0,1.1,0.1,1.6C942,128.3,942,128.7,942,129.1z M967.2,131.5h-24c-0.1-0.1-0.1-0.2-0.1-0.4
		c0-0.2-0.1-0.4-0.1-0.6v-1.1c0-0.4,0.1-0.7,0.3-1.1c0.2-0.5,0.4-1.1,0.5-1.6c0.1-0.5,0.1-0.9,0-1.4v-1.4c0.1-0.6,0.2-1.1,0.4-1.7
		c0.1-0.4,0.3-0.8,0.5-1.1c0.2-0.3,0.2-0.7,0.3-1c0.1-0.2,0.1-0.3,0.1-0.5v1c0,0.1,0.1,0.1,0.1,0.1c0.1,0,0.3-0.2,0.3-0.4v0.5
		c0,0.2-0.3,0.3-0.3,0.3c0,0.1,0.1,0.1,0.1,0.1c0.1,0,0.1,0,0.3-0.1c0.1,0,0.1,0,0.3-0.1c0.1-0.1,0.1-0.1,0.3-0.1s0.1-0.1,0.3-0.1
		c0.1,0,0.2,0,0.3-0.1c0.1-0.1,0.1-0.1,0.1-0.2s0.1-0.3,0.1-0.4c0-0.2,0-0.4-0.1-0.6c0-0.3-0.1-0.5-0.1-0.7c0-0.2,0-0.5-0.1-0.7
		c-0.1-0.4-0.2-0.7-0.1-1.1v-0.8h0.1c0.1,0,0.1,0,0-0.1c0-0.1,0-0.1,0.1-0.2c0-0.1-0.1-0.2-0.1-0.3c0-0.1-0.1-0.1-0.1-0.1
		c-0.1,0,0,0,0-0.1c0-0.1,0-0.1-0.1-0.2s0-0.1,0-0.2c0-0.1-0.1-0.3-0.1-0.4c-0.2-0.4-0.4-0.8-0.5-1.3c-0.2-0.5-0.3-0.9-0.4-1.4
		c-0.1-0.4-0.2-0.8-0.4-1.2c-0.1-0.2-0.1-0.5-0.4-0.6c-0.3-0.2-0.6-0.3-0.9-0.3c0,0,0,0,0,0c0,0,0,0,0,0c0,0,0,0,0,0
		c-0.1,0-0.1-0.1-0.3-0.1c0,0,0-0.1,0-0.1c0.1,0,0.1,0.1,0.2,0.1c-0.1-0.1-0.2-0.3-0.3-0.6c-0.2-0.4-0.3-0.8-0.4-1.2
		c-0.2-0.5-0.5-0.9-0.8-1.3c-0.6-0.6-1.4-0.8-2.1-0.6c-0.5,0-0.7,0.2-1.1,0.5c-0.3,0.5-0.6,1-0.8,1.6c-0.1,0.2-0.2,0.4-0.1,0.6
		c0,0.3,0,0.7-0.1,1v0.2c0.1,0,0.3,0,0.4-0.1v0.2c0,0.1-0.1,0.1-0.3,0.1c-0.3,0.2-0.7,0.3-1.1,0.3c-0.1,0-0.1,0.1-0.3,0.2
		c-0.1,0.2-0.2,0.5-0.3,0.7c-0.1,0.3-0.1,0.5,0,0.8v0.5c0,0.2-0.1,0.5-0.1,0.7c-0.1,0.3-0.1,0.5-0.1,0.8v0.9c0,0.1-0.1,0.1-0.1,0.2
		v0.2c0,0.1-0.1,0.2-0.1,0.4c0,0.2-0.1,0.3-0.1,0.4s-0.1,0.2-0.1,0.3c0,0.1,0,0.2-0.1,0.2v0.2c0,0.1,0.3,0.1,0.3,0.1
		c0,0.3,0,0.6-0.1,0.9c0,0.2-0.3,0.8-0.3,1c0,0.1-0.1,0.3-0.1,0.5s-0.1,0.4-0.1,0.6v0.5c0,0.1,0.1,0.1,0.1,0.2v0.2
		c0,0.1,0.1,0.2,0.1,0.3c0.1,0.1,0.1,0.2,0.3,0.3c0.1,0.1,0.2,0.2,0.4,0.2c0.1,0.1,0.3,0,0.1-0.1c0-0.1-0.1-0.2-0.1-0.2
		c0.1,0,0.4,0.1,0.4,0c0-0.1-0.3-0.2-0.3-0.2v-0.9c0-0.1,0-0.4-0.1-0.5c-0.1-0.1-0.1-0.3-0.1-0.4c0-0.2,0-0.5,0.1-0.7
		c0.2-0.4,0.4-0.7,0.7-1l0.3-0.6h0.3c0.3,0,0.1,0,0.1-0.1c0-0.1,0-0.2,0.1-0.3c0-0.1,0-0.1,0.1-0.2c0.1-0.1,0-0.2,0.1-0.4
		c0.1-0.1,0.1,0.1,0.1,0.2v0.3c0,0.1-0.1,0.1-0.1,0.2c-0.1,0.1,0.1,0.2,0.1,0.3c0,0.1-0.1,0.1-0.3,0.2c-0.1,0.1,0,0.1,0.1,0.2
		c0.1,0.1,0,0.1,0,0.2c0,0.1,0,0.1-0.1,0.2v0.9c0,0.1,0,0.1-0.1,0.3s0,0.1,0,0.2c0,0.1,0,0.4-0.1,0.5v0.2c0,0.2,0.1,0.1,0.1,0.1v0.5
		c0,0.4,0.4,1.3,0.4,1.7c0.1,0.4,0.3,1.1,0.4,1.5c0.1,0.3,0.1,0.5,0.1,0.8v0.8c0,0.3-0.1,0.8-0.1,1.2c0,0.5,0.1,1.2,0.1,1.7
		c0.1,0.4,0.1,1.1,0.3,1.6c0.1,0.5,0.2,0.9,0.3,1.4c0,0.2,0,0.4-0.1,0.5c-0.1,0.1,0,0.1,0,0.3H927V132c-0.1,0-0.1-0.1-0.1-0.2v-0.2
		c0-0.1,0.3-0.8,0.4-1.2c0.1-0.3,0.1-0.5,0-0.8h0.3v-0.2c0-0.1,0.1-0.5,0.1-0.7c0-0.3-0.1-0.3,0-0.5c0.1-0.2,0.3-0.6,0.4-0.8
		l0.1-0.2c0,0-0.1,0-0.1-0.1v-0.2c0-0.1,0.1-0.1,0.1-0.4s-0.1-0.4,0-0.6c0-0.2,0-0.5-0.1-0.7c-0.1-0.3-0.3-0.4-0.3-0.5
		c0-0.1,0-0.1-0.1-0.2v-0.3l0.1,0.2h0.1c0,0.2,0.1,0.3,0.1,0.5c0.2,0.3,0.4,0.7,0.5,1.1v0.6c0,0-0.1,0-0.1,0.1
		c0,0.1,0.1,0.1,0.1,0.1v0.3c0,0.1,0.1,0.1,0.3,0.2c0.1,0,0.3,0.1,0.4,0.1h0.1l0.5,0.4c0.1,0.1,0.2,0.2,0.4,0.2
		c0.3,0,0.4-0.2,0.3-0.4c-0.1-0.1-0.2-0.1-0.3-0.1v-0.1c0-0.1-0.7-0.3-0.7-0.3c0-0.1-0.1-0.3-0.1-0.4c-0.1-0.1-0.2-0.2-0.3-0.3
		c0-0.5,0-1-0.1-1.5c-0.1-0.3-0.3-0.7-0.3-0.7s-0.1-0.3,0-0.4c0.1-0.1,0.1-0.2,0.1-0.3c0-0.1-0.1-0.2-0.3-0.4
		c-0.1-0.1-0.4-0.8-0.8-1c-0.2-0.2-0.5-0.4-0.8-0.5l-0.5-0.2l-0.1-0.1l0.3-0.2c0.1,0,0.1-0.1,0.1-0.2c0,0,0.1,0,0.1-0.1
		c0-0.1,0.1-0.2,0.1-0.2l0.5-0.4c0.1-0.1,0.4-0.4,0.1-0.5c-0.3-0.2-0.4-0.1-0.5-0.3c0-0.4-0.2-0.7-0.5-0.9c-0.7-0.2-1.3-0.2-2-0.1
		c-0.3,0.1-0.6,0.3-0.8,0.6c0,0.2,0,0.6-0.1,0.6c0,0.1-0.5,0.4-0.5,0.6c0.1,0.1,0.2,0.2,0.3,0.3l0.3,0.1c0.1,0.1,0.2,0.2,0.3,0.3
		c0.1,0.1,0.2,0.1,0.3,0c0.1,0.1,0.1,0.2,0.1,0.3c0,0.1-0.1,0.2-0.1,0.2s-0.4,0.2-0.7,0.3c-0.1,0.1-1.2,0.5-1.3,0.6
		c-0.1,0.1-0.7,0.4-0.8,0.5c-0.3,0.1-0.5,0.3-0.8,0.4v0.1c0,0-0.9,0.8-1.2,1c-0.1,0.2-0.5,0.7-0.5,0.7c-0.2,0.1-0.4,0.2-0.5,0.3
		c-0.1,0.1-0.2,0.2-0.3,0.4c0,0.1,0.1,0.2,0.3,0.2h0.3l0.1-0.1h0.1v0.1c0.1,0,0.1,0,0.3-0.1c0.1-0.1,0.3-0.2,0.3-0.4s0-0.2,0.1-0.3
		c0-0.1,0.3-0.3,0.5-0.4c0.1-0.1,0.7-0.3,0.8-0.5c0.1-0.1,0.3-0.3,0.5-0.3l0.1,0.1l0.1-0.1c0.1-0.1,0.3-0.2,0.4-0.2l0.5-0.2v1.4
		c0,0.3-0.1,0.6-0.1,0.8c0.1,0.4,0.1,0.8,0,1.2c-0.1,0.2-0.1,0.4-0.1,0.6c0.1,0.1,0.1,0.1,0.1,0.2c0,0.1,0,0.2,0.1,0.2h0.1
		c0,0,0.3,0.7,0.1,1s-0.5,0.6-0.4,0.9c0.1,0.2,0.1,0.5,0.3,0.5s0,0.1,0,0.2c0,0.1,0.1,0.1,0.1,0.1l-0.1,0.2
		c-0.1,0.3-0.1,0.5-0.1,0.8c0,0.4,0.3,0.7,0.7,0.7c0.3,0.1,0.6,0,0.7-0.3c0.1-0.2,0.2-0.4,0.3-0.6v-0.3c0-0.1,0.1-0.2,0.1-0.3
		c0-0.1,0.3-0.1,0.3-0.2c0.1-0.1,0.1-0.2,0.3-0.3l0.1-0.1l0.1,0.1h0.1c0.1,0.2,0.1,0.3,0,0.5c-0.1,0.2,0,0.7,0,0.9
		c-0.1,0.3-0.1,0.6-0.3,0.6c-0.1,0.1-0.1,0.2-0.1,0.3h-24.7V96.1l2.8-1.6v-1.6h-2.8c0-1.8,0.3-3.6,4.1-4.8
		c9.5-3.1,24.5-4.6,28.9-4.6s19.5,1.5,28.9,4.6c3.9,1.3,4.1,3,4.1,4.8h-2.8v1.6l3.5,0.5h0V131.5z M987.9,55.1c0-2.3,0.9-3.3,4-5.7
		c3.1,2.4,4,3.4,4,5.7v13.7h-8V55.1z M987.9,98.4c0-2.3,0.9-3.3,4-5.7c3.1,2.4,4,3.4,4,5.7v20.1h-8V98.4z M1042.8,117.7h-21.3V95.1
		h21.3V117.7z M1216.4,101.6h-33.1v-4.7h33.1V101.6z M1217.1,91.9L1217.1,91.9h-40v-0.2c14.1-0.9,26.8-4.2,36.3-9
		c1.8-0.9,3.6-2,5.3-3.1L1217.1,91.9z M1219,78.1c-1.9,1.5-4,2.8-6.1,3.9c-8.1,4.4-18.5,7.6-30.5,9c8.7-1.1,17.1-3.8,24.8-8
		c6.1-3.5,10.8-7.8,13.3-12.7L1219,78.1z M1227.2,62.5h1.3v1.8h-1.3V62.5z M1223.4,62.5h0.8v1.8h-0.8V62.5z M1226.6,68.9
		L1226.6,68.9c0.3-0.1,0.6,0,0.8,0.1c-1,1.8-2.3,3.4-3.7,4.9c-0.1,0.1-0.1,0.2-0.3,0.3C1224.2,71,1225.4,69.1,1226.6,68.9z
		 M1228.6,91.9h-6.7l0.1-2.8v-0.4l0.5-7.1c1.2-0.7,2.6-0.9,4-0.6c0.8,0.1,1.5,0.5,2,1v0.1l0.3,1L1228.6,91.9z M1228.8,78.4
		L1228.8,78.4l0,0.8l-6.3,0.1c0.1-1,0.2-1.9,0.4-2.9c2.1-1.7,3.9-3.8,5.5-6c0.5,2,0.7,4.1,0.7,6.2
		C1229,77.4,1228.8,78.2,1228.8,78.4z M1234.6,62.5h5.5v1.8h-5.5V62.5z M1238.7,75.1c0.7,0,1.7,5,1.7,5.4l0.7,4.9l-2,0.2l-0.4-5
		C1238.7,80.2,1238.2,75.1,1238.7,75.1z M1239.5,91.9l-0.4-3.6c0-0.4,0.1-1.2,0.7-1.2c0.6,0.1,1.1,0.6,1.2,1.2l0.4,3.6H1239.5z
		 M1360.2,62.5h1.3v1.8h-1.3V62.5z M1359.4,68.9c-0.6,0.8-1.4,1.6-2.1,2.3C1358,69.8,1358.7,69,1359.4,68.9z M1356.5,62.5h0.8v1.8
		h-0.8V62.5z M1338.2,80.6L1338.2,80.6c5-2.5,9.5-6,13.1-10.3c1.3-1.7,2.5-3.5,3.3-5.5v0.8l-2,9.7c-4.6,3.2-9.6,5.8-14.9,7.7
		c-5.8,2-11.8,3.5-17.9,4.4C1326.2,85.9,1332.4,83.6,1338.2,80.6z M1242.5,65.3L1242.5,65.3l-0.1-1.4c0.8,1.9,1.9,3.6,3.2,5.2
		c4.8,6,12.8,11.1,22.7,14.7c7.6,2.7,15.6,4.4,23.6,5.1c-14.9-0.5-28.5-3.9-38.4-9.2c-3.3-1.7-6.4-3.8-9.2-6.3L1242.5,65.3z
		 M1349.7,114.4h-0.1h-6v-1h-5.7v-1.8h-32.4v-3h-9.9v-6.3h-27.9v3.3h-6.1v5.9h-5.7v-5.2h-7.9v-9.5h101.8V114.4z M1361.8,83.1
		L1361.8,83.1l-0.3,8.3l-1.2-3.8l-1.6,4.3h-3.7l0.5-8l0.1-2.1c0.8-0.5,1.7-0.7,2.7-0.7c1.3-0.1,2.5,0.4,3.5,1.2V83.1z M1362,78.4
		L1362,78.4c0,0.4,0,0.7-0.1,1.1l-6.3-0.2c0.1-1.5,0.3-3,0.7-4.4c-1.3,1.2-2.8,2.2-4.3,3.2l-0.1,0.6l-1.7,13.3h-103l-1.5-12.5
		l-0.9-4.2c5.1,4,10.8,7.1,16.9,9.2c10.8,3.8,22.3,5.6,33.7,5.5c3.7,0,7.5-0.2,10.9-0.5c16-0.4,30.4-4.1,40.9-9.7
		c5.2-2.6,9.8-6.2,13.5-10.7c2.4-2.9,4-6.4,4.7-10.2h0.1c-0.5,4.1-2.2,7.9-4.8,11.1C1361.8,71.7,1362.2,74.8,1362,78.4z
		 M1367.6,62.5h5.5v1.8h-5.5V62.5z M1371.7,80.6c0-0.4-0.5-5.5,0-5.5c0.7,0,1.7,5,1.7,5.4l0.7,4.9l-2,0.2L1371.7,80.6z M1372.6,91.9
		l-0.4-3.6c0-0.4,0.1-1.2,0.7-1.2c0.6,0.1,1.1,0.6,1.2,1.2l0.4,3.6H1372.6z M1389.6,87.6v4.3h-9.3l-1.6-12.4l-1.3-5.6
		c2.1,2.8,4.7,5.2,7.6,7.1c4.2,2.8,8.8,5,13.6,6.6H1389.6z M1404.4,89.3c4.6,1.2,9.2,2,13.9,2.6h-13.9V89.3z M1436.9,112.6h-5.5
		l-4.1,2.6H1417V96.8h19.9L1436.9,112.6z"/>
	<path class="st0" d="M943.4,109.8L943.4,109.8c0,0-0.1,0-0.1-0.1C943.4,109.8,943.4,109.8,943.4,109.8z"/>
</g>
</svg>
